<?xml version="1.0" encoding="utf-8"?>
<!-- Generator: Adobe Illustrator 16.0.0, SVG Export Plug-In . SVG Version: 6.00 Build 0)  -->
<!DOCTYPE svg PUBLIC "-//W3C//DTD SVG 1.1//EN" "http://www.w3.org/Graphics/SVG/1.1/DTD/svg11.dtd">
<svg version="1.1" id="Layer_3" xmlns="http://www.w3.org/2000/svg" xmlns:xlink="http://www.w3.org/1999/xlink" x="0px" y="0px"
	 width="28.119px" height="27.661px" viewBox="0.126 0.355 28.119 27.661" enable-background="new 0.126 0.355 28.119 27.661"
	 xml:space="preserve">
<path fill="#9BCD72" d="M28.245,23.162c0,2.68-2.192,4.854-4.898,4.854H5.023c-2.705,0-4.897-2.174-4.897-4.854V5.207
	c0-2.68,2.193-4.852,4.897-4.852h18.323c2.706,0,4.898,2.172,4.898,4.852V23.162z"/>
<g>
	
		<path fill="none" stroke="#221F1F" stroke-width="2.6251" stroke-linecap="round" stroke-linejoin="round" stroke-miterlimit="10" d="
		M19.911,19.725H8.48c-0.608,0-1.101-0.493-1.101-1.101v-5.431"/>
	
		<path fill="none" stroke="#221F1F" stroke-width="2.6251" stroke-linecap="round" stroke-linejoin="round" stroke-miterlimit="10" d="
		M8.48,8.341h11.431c0.608,0,1.101,0.492,1.101,1.1v5.432"/>
	<path fill="#221F1F" d="M22.118,19.307l-4.821-3.688c-0.188-0.144-0.44-0.168-0.65-0.061c-0.21,0.106-0.343,0.324-0.343,0.565V23.5
		c0,0.24,0.133,0.458,0.343,0.565c0.089,0.044,0.184,0.066,0.279,0.066c0.133,0,0.262-0.044,0.371-0.127l4.821-3.688
		c0.157-0.117,0.248-0.308,0.248-0.505C22.366,19.613,22.275,19.426,22.118,19.307z"/>
	<path fill="#221F1F" d="M6.253,8.055l4.819-3.688c0.188-0.145,0.442-0.167,0.652-0.061s0.343,0.326,0.343,0.566v7.375
		c0,0.24-0.133,0.46-0.343,0.565c-0.089,0.044-0.184,0.068-0.278,0.068c-0.134,0-0.263-0.044-0.374-0.129L6.253,9.066
		C6.096,8.947,6.005,8.759,6.005,8.561C6.005,8.361,6.096,8.174,6.253,8.055z"/>
</g>
</svg>
