<?xml version="1.0" encoding="utf-8"?>
<!-- Generator: Adobe Illustrator 16.0.0, SVG Export Plug-In . SVG Version: 6.00 Build 0)  -->
<!DOCTYPE svg PUBLIC "-//W3C//DTD SVG 1.1//EN" "http://www.w3.org/Graphics/SVG/1.1/DTD/svg11.dtd">
<svg version="1.1" xmlns="http://www.w3.org/2000/svg" xmlns:xlink="http://www.w3.org/1999/xlink" x="0px" y="0px"
	 width="515.001px" height="515px" viewBox="0 0 515.001 515" enable-background="new 0 0 515.001 515" xml:space="preserve">
<g id="Layer_8">
	<rect fill="#96E072" width="515.001" height="515"/>
</g>
<g id="Layer_11">
	<rect fill="#45CFE5" width="515.001" height="291.815"/>
	<g>
		<path fill="#96E072" d="M0.177,296.599c0,11.759,9.535,21.291,21.291,21.291c11.762,0,21.295-9.532,21.295-21.291
			s-9.533-21.293-21.295-21.293C9.712,275.306,0.177,284.84,0.177,296.599z"/>
		<path fill="#96E072" d="M42.763,296.599c0,11.759,9.535,21.291,21.291,21.291c11.762,0,21.295-9.532,21.295-21.291
			s-9.533-21.293-21.295-21.293C52.298,275.306,42.763,284.84,42.763,296.599z"/>
		<path fill="#96E072" d="M85.349,296.599c0,11.759,9.535,21.291,21.291,21.291c11.762,0,21.295-9.532,21.295-21.291
			s-9.533-21.293-21.295-21.293C94.884,275.306,85.349,284.84,85.349,296.599z"/>
		<path fill="#96E072" d="M127.935,296.599c0,11.759,9.535,21.291,21.291,21.291c11.762,0,21.295-9.532,21.295-21.291
			s-9.533-21.293-21.295-21.293C137.47,275.306,127.935,284.84,127.935,296.599z"/>
		<path fill="#96E072" d="M170.521,296.599c0,11.759,9.535,21.291,21.291,21.291c11.762,0,21.295-9.532,21.295-21.291
			s-9.533-21.293-21.295-21.293C180.056,275.306,170.521,284.84,170.521,296.599z"/>
		<path fill="#96E072" d="M213.106,296.599c0,11.759,9.535,21.291,21.291,21.291c11.762,0,21.295-9.532,21.295-21.291
			s-9.533-21.293-21.295-21.293C222.642,275.306,213.106,284.84,213.106,296.599z"/>
	</g>
	<g>
		<path fill="#96E072" d="M472.415,296.599c0,11.759,9.535,21.291,21.291,21.291c11.762,0,21.295-9.532,21.295-21.291
			s-9.533-21.293-21.295-21.293C481.95,275.306,472.415,284.84,472.415,296.599z"/>
	</g>
	<g opacity="0.5">
		<path fill-rule="evenodd" clip-rule="evenodd" fill="#FFFFFF" d="M401.951,70.936c0,10.216,8.282,18.499,18.499,18.499h43.387
			c10.214,0,18.5-8.283,18.5-18.499l0,0c0-10.22-8.286-18.504-18.5-18.504H420.45C410.233,52.432,401.951,60.716,401.951,70.936
			L401.951,70.936z"/>
		<path fill-rule="evenodd" clip-rule="evenodd" fill="#FFFFFF" d="M360.962,106.023c0,10.218,8.28,18.498,18.499,18.498h101.365
			c10.214,0,18.5-8.28,18.5-18.498l0,0c0-10.221-8.286-18.5-18.5-18.5H379.461C369.242,87.523,360.962,95.803,360.962,106.023
			L360.962,106.023z"/>
		<path fill-rule="evenodd" clip-rule="evenodd" fill="#FFFFFF" d="M258.396,108.739c0,10.216,8.282,18.499,18.499,18.499h33.387
			c10.214,0,18.5-8.283,18.5-18.499l0,0c0-10.22-8.286-18.504-18.5-18.504h-33.387C266.678,90.235,258.396,98.52,258.396,108.739
			L258.396,108.739z"/>
	</g>
</g>
<g id="cositas">
	
		<path fill="none" stroke="#929497" stroke-width="18.0822" stroke-linecap="round" stroke-linejoin="round" stroke-miterlimit="10" d="
		M438.19,403.838c0,9.986-8.096,18.082-18.082,18.082h-52.257"/>
	
		<path fill="none" stroke="#929497" stroke-width="18.0822" stroke-linecap="round" stroke-linejoin="round" stroke-miterlimit="10" d="
		M438.563,402.877v-17.494c0-9.986,8.096-18.082,18.082-18.082h0.604c9.986,0,18.082,8.096,18.082,18.082"/>
	<path fill="#929497" stroke="#929497" stroke-width="4.0461" stroke-miterlimit="10" d="M311.526,436.547v33.924
		c0,11.309-9.166,20.474-20.477,20.474c-11.309,0-20.475-9.165-20.475-20.474v-33.924H311.526z"/>
	<path fill="#929497" stroke="#929497" stroke-width="4.0461" stroke-miterlimit="10" d="M393.236,436.303v33.924
		c0,11.309-9.166,20.474-20.477,20.474c-11.309,0-20.475-9.165-20.475-20.474v-33.924H393.236z"/>
	<path fill="#929497" d="M299.645,346.292c-30.752,0-55.684,24.931-55.684,55.685v5.842c0,30.752,24.932,55.684,55.684,55.684
		h63.092c30.754,0,55.686-24.932,55.686-55.684v-5.842c0-30.754-24.932-55.685-55.686-55.685H299.645z"/>
	<path opacity="0.3" fill="#FFFFFF" d="M306.008,411.694c-10.447,0-18.914,8.468-18.914,18.913v1.983
		c0,10.444,8.467,18.914,18.914,18.914h21.428c10.445,0,18.912-8.47,18.912-18.914v-1.983c0-10.445-8.467-18.913-18.912-18.913
		H306.008z"/>
	<path fill="#FFDD15" d="M413.093,431.6c3.413-7.213,5.329-15.272,5.329-23.781v-5.842c0-30.754-24.932-55.685-55.686-55.685
		h-63.092c-30.752,0-55.684,24.931-55.684,55.685v5.842c0,8.509,1.916,16.568,5.329,23.781H413.093z"/>
	<path fill="#929497" d="M319.012,368.546l22.34-0.335c9.117-0.112,16.594,7.186,16.707,16.299
		c0.111,9.116-7.184,16.595-16.299,16.705l-22.34,0.338L319.012,368.546z"/>
	<circle fill="#929497" cx="188.323" cy="380.094" r="21.292"/>
	<g>
		
			<polygon fill="#6D6E70" stroke="#929497" stroke-width="20" stroke-linecap="round" stroke-linejoin="round" stroke-miterlimit="10" points="
			370.826,230.89 399.773,180.752 428.721,230.89 		"/>
		
			<polygon fill="#6D6E70" stroke="#929497" stroke-width="20" stroke-linecap="round" stroke-linejoin="round" stroke-miterlimit="10" points="
			221.826,230.89 250.773,180.752 279.721,230.89 		"/>
		<polygon fill="#6D6E70" points="370.826,240.89 399.773,190.752 428.721,240.89 		"/>
		<polygon fill="#6D6E70" points="221.826,240.89 250.773,190.752 279.721,240.89 		"/>
		<g>
			
				<line fill="none" stroke="#FFFFFF" stroke-width="8.3776" stroke-linecap="round" stroke-linejoin="round" stroke-miterlimit="10" x1="218.84" y1="250.088" x2="218.84" y2="267.539"/>
			
				<line fill="none" stroke="#FFFFFF" stroke-width="8.3776" stroke-linecap="round" stroke-linejoin="round" stroke-miterlimit="10" x1="228.625" y1="254.617" x2="209.053" y2="254.617"/>
		</g>
		
			<path fill="#929497" stroke="#929497" stroke-width="11.3049" stroke-linecap="round" stroke-linejoin="round" stroke-miterlimit="10" d="
			M466.848,216.382c8.494,13.507,13.43,29.468,13.43,46.567v8.978c0,48.38-39.357,87.735-87.734,87.735H278.189
			c-48.379,0-87.738-39.355-87.738-87.735v-8.978c0-17.1,4.938-33.061,13.432-46.567H466.848z"/>
		<circle opacity="0.3" fill="#FFFFFF" cx="307.747" cy="311.958" r="33.141"/>
		<g opacity="0">
			<path fill="#231F20" d="M308.663,311.521l-14.183-6.421c-0.75,1.809-1.169,3.793-1.169,5.872c0,8.48,6.873,15.353,15.353,15.353
				c8.479,0,15.352-6.872,15.352-15.353c0-2.081-0.418-4.063-1.169-5.873L308.663,311.521z"/>
		</g>
		<path fill="none" stroke="#EC1C24" stroke-miterlimit="10" d="M312.775,265.698"/>
		<path fill="#231F20" d="M301.107,288.126c0,3.562,2.885,6.445,6.445,6.445l0,0c3.563,0,6.447-2.884,6.447-6.445v-0.22
			c0-3.563-2.885-6.451-6.447-6.451l0,0c-3.561,0-6.445,2.889-6.445,6.451V288.126z"/>
		
			<line fill="#FEED72" stroke="#231F20" stroke-width="5" stroke-linecap="round" stroke-linejoin="round" stroke-miterlimit="10" x1="307.553" y1="290.738" x2="307.553" y2="311.495"/>
		<g opacity="0.3">
			
				<line fill="#EDBED6" stroke="#F1F1F2" stroke-width="4" stroke-linecap="round" stroke-linejoin="round" stroke-miterlimit="10" x1="381.479" y1="316.981" x2="393.871" y2="320.151"/>
			
				<line fill="#EDBED6" stroke="#F1F1F2" stroke-width="4" stroke-linecap="round" stroke-linejoin="round" stroke-miterlimit="10" x1="381.479" y1="286.495" x2="393.871" y2="283.325"/>
			
				<line fill="#EDBED6" stroke="#F1F1F2" stroke-width="4" stroke-linecap="round" stroke-linejoin="round" stroke-miterlimit="10" x1="385.428" y1="301.495" x2="399.255" y2="301.495"/>
		</g>
		<g opacity="0.3">
			
				<line fill="#EDBED6" stroke="#F1F1F2" stroke-width="4" stroke-linecap="round" stroke-linejoin="round" stroke-miterlimit="10" x1="234.254" y1="315.981" x2="221.861" y2="319.151"/>
			
				<line fill="#EDBED6" stroke="#F1F1F2" stroke-width="4" stroke-linecap="round" stroke-linejoin="round" stroke-miterlimit="10" x1="234.254" y1="285.495" x2="221.861" y2="282.325"/>
			
				<line fill="#EDBED6" stroke="#F1F1F2" stroke-width="4" stroke-linecap="round" stroke-linejoin="round" stroke-miterlimit="10" x1="230.305" y1="300.495" x2="216.478" y2="300.495"/>
		</g>
		<path fill="#231F20" d="M280.188,278.15c0,2.688,2.178,4.864,4.865,4.864l0,0c2.686,0,4.863-2.177,4.863-4.864v-3.461
			c0-2.688-2.178-4.865-4.863-4.865l0,0c-2.688,0-4.865,2.178-4.865,4.865V278.15z"/>
		<path fill="#231F20" d="M326.188,278.15c0,2.688,2.178,4.864,4.865,4.864l0,0c2.686,0,4.863-2.177,4.863-4.864v-3.461
			c0-2.688-2.178-4.865-4.863-4.865l0,0c-2.688,0-4.865,2.178-4.865,4.865V278.15z"/>
		
			<line fill="#EC1C24" stroke="#FFFFFF" stroke-width="5" stroke-linecap="round" stroke-linejoin="round" stroke-miterlimit="10" x1="316.035" y1="308.677" x2="316.035" y2="313.474"/>
		
			<polyline fill="none" stroke="#231F20" stroke-width="5" stroke-linecap="round" stroke-linejoin="round" stroke-miterlimit="10" points="
			321.982,305.811 308.054,312.117 295.345,306.363 		"/>
		<g>
			
				<line fill="#A6A8AB" stroke="#FFDD15" stroke-width="30" stroke-linecap="round" stroke-linejoin="round" stroke-miterlimit="10" x1="191.569" y1="234.718" x2="477.534" y2="234.718"/>
			
				<line fill="#A6A8AB" stroke="#EC1C24" stroke-width="5" stroke-linecap="square" stroke-linejoin="round" stroke-miterlimit="10" x1="179.569" y1="234.718" x2="488.534" y2="234.718"/>
		</g>
	</g>
	<g>
		<g>
			
				<line fill="#A6A8AB" stroke="#FFFFFF" stroke-width="11.626" stroke-linecap="round" stroke-linejoin="round" stroke-miterlimit="10" x1="101.151" y1="182.302" x2="76.024" y2="65.323"/>
			
				<line fill="#A6A8AB" stroke="#FFFFFF" stroke-width="11.626" stroke-linecap="round" stroke-linejoin="round" stroke-miterlimit="10" x1="200.918" y1="182.302" x2="226.045" y2="65.323"/>
			<g>
				
					<line fill="#A6A8AB" stroke="#FFFFFF" stroke-width="11.626" stroke-linecap="round" stroke-linejoin="round" stroke-miterlimit="10" x1="117.095" y1="64.516" x2="85.989" y2="100.983"/>
				
					<line fill="#A6A8AB" stroke="#FFFFFF" stroke-width="11.626" stroke-linecap="round" stroke-linejoin="round" stroke-miterlimit="10" x1="169.688" y1="65.324" x2="95.63" y2="152.148"/>
				
					<line fill="#A6A8AB" stroke="#FFFFFF" stroke-width="11.626" stroke-linecap="round" stroke-linejoin="round" stroke-miterlimit="10" x1="202.198" y1="89.678" x2="123.688" y2="181.723"/>
				
					<line fill="#A6A8AB" stroke="#FFFFFF" stroke-width="11.626" stroke-linecap="round" stroke-linejoin="round" stroke-miterlimit="10" x1="204.844" y1="149.046" x2="176.971" y2="181.723"/>
			</g>
			<g>
				
					<line fill="#A6A8AB" stroke="#FFFFFF" stroke-width="11.626" stroke-linecap="round" stroke-linejoin="round" stroke-miterlimit="10" x1="184.257" y1="65.327" x2="215.903" y2="102.428"/>
				
					<line fill="#A6A8AB" stroke="#FFFFFF" stroke-width="11.626" stroke-linecap="round" stroke-linejoin="round" stroke-miterlimit="10" x1="131.805" y1="66.301" x2="206.917" y2="154.364"/>
				
					<line fill="#A6A8AB" stroke="#FFFFFF" stroke-width="11.626" stroke-linecap="round" stroke-linejoin="round" stroke-miterlimit="10" x1="97.044" y1="88.018" x2="176.973" y2="181.725"/>
				
					<line fill="#A6A8AB" stroke="#FFFFFF" stroke-width="11.626" stroke-linecap="round" stroke-linejoin="round" stroke-miterlimit="10" x1="97.049" y1="150.491" x2="123.688" y2="181.723"/>
			</g>
		</g>
		
			<line fill="#A6A8AB" stroke="#1B75BB" stroke-width="18.4177" stroke-linecap="round" stroke-linejoin="round" stroke-miterlimit="10" x1="64.856" y1="64.809" x2="237.216" y2="64.809"/>
	</g>
	<g>
		<path fill="#F26522" d="M311.587,357.604c-5.611-16.173-16.716-28.953-30.588-36.924c-1.433-0.823-2.897-1.589-4.39-2.307
			c-14.322-6.902-31.031-8.854-47.465-4.443c-0.805,0.219-1.61,0.359-2.41,0.611c-0.799,0.245-1.547,0.573-2.332,0.852
			c-16.072,5.577-28.802,16.575-36.774,30.331c-0.832,1.434-1.612,2.891-2.337,4.382c-7.002,14.375-9.006,31.189-4.566,47.728
			c0.217,0.801,0.363,1.604,0.611,2.411c0.246,0.793,0.574,1.545,0.85,2.329c5.611,16.175,16.706,28.961,30.581,36.925
			c1.437,0.826,2.899,1.594,4.392,2.311c14.321,6.905,31.035,8.858,47.469,4.443c0.806-0.216,1.609-0.365,2.407-0.608
			c0.803-0.245,1.552-0.579,2.335-0.852c16.077-5.579,28.807-16.582,36.779-30.342c0.829-1.426,1.612-2.884,2.331-4.375
			c7.008-14.381,9.008-31.196,4.561-47.732c-0.212-0.796-0.354-1.602-0.604-2.402C312.192,359.14,311.86,358.39,311.587,357.604z"/>
		<g opacity="0.2">
			<path fill="#231F20" d="M217.832,391.619c4.428,16.582,2.164,33.509-5.315,47.732c1.434,0.832,2.891,1.612,4.383,2.337
				c8.073-15.354,10.502-33.633,5.673-51.525L217.832,391.619z"/>
			<path fill="#231F20" d="M185.167,350.368c14.173,7.576,25.557,20.301,31.205,36.511l4.745-1.462
				c-6.059-17.516-18.335-31.274-33.645-39.438C186.649,347.413,185.886,348.88,185.167,350.368z"/>
			<path fill="#231F20" d="M308.601,409.821c-14.18-7.573-25.56-20.306-31.213-36.512l-4.74,1.454
				c6.06,17.52,18.338,31.275,33.643,39.446C307.117,412.775,307.887,411.313,308.601,409.821z"/>
			<path fill="#231F20" d="M275.933,368.565c-4.425-16.584-2.161-33.503,5.313-47.734c-1.428-0.83-2.886-1.613-4.376-2.332
				c-8.073,15.353-10.506,33.63-5.675,51.526L275.933,368.565z"/>
			<path fill="#231F20" d="M272.647,374.764c-0.268-0.784-0.6-1.532-0.848-2.33c-0.246-0.799-0.393-1.607-0.605-2.408l-22.671,6.967
				l1.459,4.744L272.647,374.764z"/>
			<path fill="#231F20" d="M216.372,386.879l-35.649,10.955c0.219,0.805,0.36,1.612,0.613,2.411
				c0.243,0.802,0.573,1.548,0.849,2.331l35.647-10.957c-0.216-0.803-0.363-1.61-0.608-2.405
				C216.977,388.413,216.647,387.663,216.372,386.879z"/>
			<path fill="#231F20" d="M221.117,385.417c0.27,0.787,0.605,1.537,0.849,2.332c0.247,0.806,0.393,1.611,0.606,2.414l22.668-6.971
				l-1.459-4.738L221.117,385.417z"/>
			<path fill="#231F20" d="M277.388,373.31l35.658-10.957c-0.217-0.805-0.366-1.61-0.607-2.409c-0.247-0.804-0.581-1.55-0.854-2.335
				l-35.651,10.957c0.214,0.807,0.361,1.612,0.609,2.407C276.787,371.775,277.121,372.528,277.388,373.31z"/>
			<path fill="#231F20" d="M221.117,385.417l-4.745,1.462c0.275,0.784,0.604,1.534,0.852,2.335c0.245,0.795,0.393,1.603,0.608,2.405
				l4.74-1.456c-0.214-0.803-0.359-1.608-0.606-2.414C221.723,386.954,221.387,386.204,221.117,385.417z"/>
			<path fill="#231F20" d="M272.647,374.764l4.74-1.454c-0.267-0.781-0.601-1.534-0.846-2.337c-0.248-0.795-0.396-1.601-0.609-2.407
				l-4.738,1.46c0.213,0.801,0.359,1.609,0.605,2.408C272.048,373.231,272.38,373.979,272.647,374.764z"/>
			<path fill="#231F20" d="M245.24,383.192l19.386,63.062c0.802-0.217,1.607-0.361,2.411-0.609c0.793-0.248,1.546-0.577,2.33-0.852
				l-19.385-63.057L245.24,383.192z"/>
			<path fill="#231F20" d="M248.523,376.992l-19.386-63.053c-0.798,0.211-1.603,0.353-2.403,0.603
				c-0.802,0.245-1.552,0.577-2.337,0.85l19.384,63.063L248.523,376.992z"/>
			<polygon fill="#231F20" points="245.24,383.192 249.982,381.736 248.523,376.992 243.781,378.454 			"/>
		</g>
		
			<path fill="none" stroke="#231F20" stroke-width="3.9646" stroke-linecap="round" stroke-linejoin="round" stroke-miterlimit="10" d="
			M256.023,388.925c0.96,3.155-0.819,6.494-3.976,7.455c-3.156,0.962-6.494-0.819-7.455-3.973"/>
		<path fill="#231F20" d="M266.967,363.701c1.016,3.337-0.863,6.862-4.197,7.876c-3.334,1.018-6.858-0.861-7.875-4.196
			c-1.015-3.333,0.864-6.858,4.198-7.874C262.429,358.491,265.951,360.37,266.967,363.701z"/>
		<path fill="#231F20" d="M235.168,373.389c1.015,3.335-0.865,6.858-4.198,7.874c-3.335,1.018-6.859-0.863-7.875-4.197
			c-1.015-3.333,0.862-6.858,4.197-7.876C230.627,368.178,234.153,370.055,235.168,373.389z"/>
	</g>
	<path fill="#929497" d="M287.753,382.737c0,11.759,9.535,21.291,21.291,21.291c11.762,0,21.295-9.532,21.295-21.291
		s-9.533-21.293-21.295-21.293C297.288,361.444,287.753,370.979,287.753,382.737z"/>
	
		<line fill="#A6A8AB" stroke="#1B75BB" stroke-width="20.6231" stroke-linecap="round" stroke-linejoin="round" stroke-miterlimit="10" x1="64.901" y1="42.432" x2="64.901" y2="475.709"/>
	
		<line fill="#A6A8AB" stroke="#1B75BB" stroke-width="18.7962" stroke-linecap="round" stroke-linejoin="round" stroke-miterlimit="10" x1="37.303" y1="479.146" x2="131.819" y2="479.146"/>
	<g>
		
			<line fill="none" stroke="#FFFFFF" stroke-width="8" stroke-linecap="round" stroke-linejoin="round" stroke-miterlimit="10" x1="469.472" y1="355.501" x2="469.712" y2="360.583"/>
		
			<line fill="none" stroke="#FFFFFF" stroke-width="8" stroke-linecap="round" stroke-linejoin="round" stroke-miterlimit="10" x1="477.54" y1="360.213" x2="473.054" y2="362.613"/>
	</g>
	<path fill="none" stroke="#FFFFFF" stroke-width="18.0822" stroke-linejoin="round" stroke-miterlimit="10" d="M457.249,367.301
		c7.144,0,13.319,4.143,16.257,10.156"/>
</g>
</svg>
