<?xml version="1.0" encoding="utf-8"?><svg xmlns:xlink="http://www.w3.org/1999/xlink" id="tutorial3_3" image-rendering="auto" baseProfile="basic" version="1.1" x="0px" y="0px" width="800" height="450" xmlns="http://www.w3.org/2000/svg"><defs><filter id="filter6" filterUnits="objectBoundingBox" width="100%" height="100%" x="0%" y="0%"><feColorMatrix type="matrix" in="SourceGraphic" result="colorTrans" values="0 0 0 0 0.4 0 0 0 0 0.4 0 0 0 0 0.4 0 0 0 1 0"/></filter><filter id="filter7" filterUnits="objectBoundingBox" width="100%" height="100%" x="0%" y="0%"><feColorMatrix type="matrix" in="SourceGraphic" result="colorTrans" values="0 0 0 0 0.4 0 0 0 0 0.4 0 0 0 0 0.4 0 0 0 1 0"/></filter><filter id="filter8" filterUnits="objectBoundingBox" width="100%" height="100%" x="0%" y="0%"><feColorMatrix type="matrix" in="SourceGraphic" result="colorTrans" values="0 0 0 0 0.4 0 0 0 0 0.4 0 0 0 0 0.4 0 0 0 1 0"/></filter><symbol id="parche2" overflow="visible"><g id="parche2_0.0"><path fill="#FFF" d="M481.451,25.523L481.451,0.041 0.051,0.041 0.051,25.523 481.451,25.523"/></g>
</symbol><symbol id="flecha_blanca" overflow="visible"><g><g id="flecha blanca_0.0.0"><path fill="none" stroke="#FFF" stroke-width="12" stroke-linecap="round" stroke-linejoin="round" d="M0.051,10.776L22.726,10.776"/></g><g id="flecha blanca_0.0.1"><path fill="none" stroke="#FFF" stroke-width="12" stroke-linecap="round" stroke-linejoin="round" d="M23.8,10.725L12.8,21.45M23.8,10.725L12.8,0"/></g></g>
</symbol><symbol id="flecha_gris" overflow="visible"><g id="flecha gris_0.0"><path fill="#999" d="M12.775,-3.5Q11.323,-3.486 10.3,-2.45 9.284,-1.416 9.3,0.025 9.318,1.476 10.35,2.5L15.2,7.25 0,7.25Q-1.45,7.25 -2.475,8.275 -3.5,9.3 -3.5,10.75 -3.5,12.2 -2.475,13.225 -1.45,14.25 0,14.25L15.175,14.25 10.35,18.95Q9.318,19.959 9.3,21.4 9.283,22.838 10.3,23.875 11.309,24.923 12.75,24.95 14.198,24.966 15.25,23.95L26.25,13.25Q26.925,12.589 27.175,11.675 27.427,10.748 27.175,9.825 26.925,8.915 26.25,8.25L15.25,-2.5Q14.212,-3.515 12.775,-3.5"/></g>
</symbol><symbol id="destello" overflow="visible"><g id="destello_0.0"><g><path fill="none" stroke="#FAB631" stroke-width="15" stroke-linecap="round" stroke-linejoin="round" d="M46.051,0.051L46.051,17.051"/><path fill="none" stroke="#FAB631" stroke-width="15" stroke-linecap="round" stroke-linejoin="round" d="M0.051,13.551L12.076,25.551"/><path fill="none" stroke="#FAB631" stroke-width="15" stroke-linecap="round" stroke-linejoin="round" d="M92.076,13.551L80.051,25.551"/></g></g>
</symbol></defs><g id="Scene_1" overflow="visible"><g style="display:none;"><g id="pieza_3" transform="matrix(0.171 0 0 0.171 260.15 227.2)"><animateTransform attributeName="transform" additive="replace" type="translate" repeatCount="indefinite" dur="13.083s" keyTimes="0;0.239;0.242;0.245;0.248;0.252;0.255;0.258;0.261;0.264;0.268;1" values="268.95,253.445;268.95,253.445;268.906,253.455;268.941,253.455;268.891,253.5;268.94,253.463;269.017,253.439;268.94,253.443;269.041,253.459;268.945,253.478;268.95,253.45;268.95,253.45" calcMode="discrete"/><animateTransform attributeName="transform" additive="sum" type="scale" repeatCount="indefinite" dur="13.083s" keyTimes="0;0.239;0.242;0.245;0.248;0.252;0.255;0.258;0.261;0.264;0.268;1" values="0.171,0.171;0.171,0.171;0.292,0.292;0.412,0.412;0.533,0.533;0.654,0.654;0.774,0.774;0.895,0.895;1.015,1.015;1.008,1.008;1,1;1,1" calcMode="discrete"/><animateTransform attributeName="transform" additive="sum" type="translate" repeatCount="indefinite" dur="13.083s" keyTimes="0;0.242;0.245;0.248;0.252;0.255;0.258;0.261;0.264;1" values="-51.45,-153.45;-51.45,-153.45;-51.4,-153.55;-51.4,-153.5;-51.4,-153.5;-51.5,-153.45;-51.4,-153.5;-51.5,-153.5;-51.45,-153.5;-51.45,-153.5" calcMode="discrete"/><g><g id="pieza 1_0.0.0"><g><path fill="#EF5D81" d="M83.9,5.85L8.65,5.85 8.65,69 83.9,69 83.9,5.85"/><g id="Timeline_1"><path fill="#00A551" d="M92.4,-0.025L9.525,-0.025Q8.864,-0.029 8.225,0.05 7.597,0.133 7,0.3 6.383,0.476 5.8,0.725 5.229,0.965 4.7,1.275 4.165,1.581 3.675,1.95 3.199,2.333 2.775,2.775 2.334,3.199 1.95,3.675 1.581,4.165 1.275,4.7 0.965,5.229 0.725,5.8 0.476,6.383 0.3,7 0.133,7.597 0.05,8.225 -0.029,8.864 -0.025,9.525L-0.025,63.875Q-0.029,64.536 0.05,65.175 0.133,65.816 0.3,66.425 0.476,67.029 0.725,67.6 0.965,68.183 1.275,68.725 1.581,69.248 1.95,69.725 2.334,70.214 2.775,70.65 3.199,71.091 3.675,71.475 4.165,71.844 4.7,72.15 5.229,72.46 5.8,72.7 6.383,72.949 7,73.125 7.597,73.292 8.225,73.375 8.864,73.455 9.525,73.45L35.9,73.45 40.525,76.7Q40.891,76.951 41.3,77.075 41.718,77.201 42.15,77.2 42.57,77.201 42.975,77.075 43.384,76.951 43.75,76.7L48.4,73.45 92.4,73.45 92.425,73.425 92.425,0 92.4,-0.025"/></g><path fill="#EF5D81" d="M92.4,-0.025L9.525,-0.025Q8.864,-0.029 8.225,0.05 7.597,0.133 7,0.3 6.383,0.476 5.8,0.725 5.229,0.965 4.7,1.275 4.165,1.581 3.675,1.95 3.199,2.333 2.775,2.775 2.334,3.199 1.95,3.675 1.581,4.165 1.275,4.7 0.965,5.229 0.725,5.8 0.476,6.383 0.3,7 0.133,7.597 0.05,8.225 -0.029,8.864 -0.025,9.525L-0.025,297.425Q-0.029,298.086 0.05,298.725 0.133,299.365 0.3,299.975 0.476,300.579 0.725,301.15 0.965,301.721 1.275,302.25 1.581,302.785 1.95,303.275 2.334,303.751 2.775,304.175 3.199,304.617 3.675,305 4.165,305.369 4.7,305.675 5.229,305.985 5.8,306.225 6.383,306.474 7,306.65 7.597,306.817 8.225,306.9 8.864,306.992 9.525,307L92.4,307 92.425,306.95 92.425,296.15 92.4,296.1 48.35,296.125 43.95,299.175Q43.484,299.504 42.95,299.675 42.395,299.848 41.8,299.85 41.219,299.848 40.675,299.675 40.14,299.504 39.675,299.175L35.25,296.1 29.225,296.1Q27.044,296.084 25.15,295.275 23.247,294.462 21.8,293.025 20.362,291.589 19.55,289.7 18.739,287.793 18.725,285.6L18.725,82.825Q18.729,82.1 18.825,81.4 18.917,80.696 19.1,80.025 19.284,79.369 19.55,78.75 19.824,78.114 20.175,77.525 20.515,76.95 20.925,76.425 21.331,75.883 21.8,75.4 22.283,74.931 22.825,74.525 23.35,74.103 23.925,73.75 24.514,73.412 25.15,73.15 25.782,72.884 26.45,72.7 27.108,72.517 27.8,72.425 28.5,72.329 29.225,72.325L35.1,72.325Q35.255,72.328 35.4,72.375 35.533,72.416 35.65,72.5L40.775,76.075Q41.007,76.24 41.275,76.325 41.531,76.403 41.8,76.4 42.081,76.403 42.35,76.325 42.618,76.24 42.85,76.075L47.975,72.5Q48.091,72.416 48.225,72.375 48.371,72.328 48.525,72.325L92.4,72.325 92.425,72.3 92.425,0 92.4,-0.025"/><g><path fill="#231F20" d="M63.975,37.475L63.975,37.425 41.825,24.625 41.775,24.65 41.8,25.85 41.8,24.65 63.95,37.45 41.8,50.25 41.8,50.275 41.825,50.275 63.975,37.475"/><path fill="#231F20" d="M41.8,50.25L63.95,37.45 41.8,24.65 41.8,25.85Q41.798,26.05 41.8,26.25 41.794,38.25 41.8,50.25"/><path fill="none" stroke="#231F20" stroke-width="5" stroke-linecap="round" stroke-linejoin="round" d="M41.8,26.25Q41.798,26.05 41.8,25.85M41.8,50.25Q41.794,38.25 41.8,26.25"/><path fill="none" stroke="#231F20" stroke-width="5" stroke-linecap="round" stroke-linejoin="round" d="M41.8,25.85L41.8,24.65 63.95,37.45 41.8,50.25"/></g><g><g><path fill="#FFC85E" d="M35.125,147.325L29.275,147.325Q28.614,147.321 27.975,147.4 27.334,147.483 26.725,147.65 26.121,147.827 25.55,148.075 24.979,148.315 24.45,148.625 23.914,148.931 23.425,149.3 22.948,149.684 22.525,150.125 22.084,150.549 21.7,151.025 21.331,151.515 21.025,152.05 20.715,152.579 20.475,153.15 20.225,153.721 20.05,154.325 19.883,154.934 19.8,155.575 19.721,156.214 19.725,156.875L19.725,211.15Q19.721,211.811 19.8,212.45 19.883,213.09 20.05,213.7 20.225,214.304 20.475,214.875 20.715,215.446 21.025,215.975 21.331,216.51 21.7,217 22.084,217.489 22.525,217.925 22.948,218.354 23.425,218.725 23.914,219.106 24.45,219.425 24.979,219.736 25.55,219.975 26.121,220.212 26.725,220.375 27.334,220.542 27.975,220.625 28.614,220.717 29.275,220.725L35.6,220.725 40.225,223.95Q40.59,224.201 41,224.325 41.417,224.45 41.85,224.45 42.271,224.45 42.675,224.325 43.085,224.201 43.45,223.95L48.075,220.725 102.05,220.725 102.075,220.675 102.075,147.35 102.05,147.325 48.525,147.325 43.425,150.9Q43.059,151.149 42.65,151.275 42.258,151.386 41.85,151.375 41.429,151.386 41.025,151.275 40.628,151.149 40.275,150.9L35.125,147.325"/><path fill="#FFC85E" stroke-width="1.8" stroke-linecap="round" stroke-linejoin="round" d="M102.05,220.675L102.05,147.35 48.55,147.35 43.425,150.925Q42.697,151.426 41.85,151.425 41.43,151.425 41.025,151.3 40.615,151.175 40.25,150.925L35.125,147.35 29.275,147.35Q27.683,147.351 26.25,147.825 24.831,148.303 23.65,149.175 22.455,150.055 21.575,151.25 20.703,152.431 20.225,153.85 19.751,155.283 19.75,156.875L19.75,211.15Q19.751,212.742 20.225,214.175 20.703,215.594 21.575,216.775 22.455,217.97 23.65,218.85 24.831,219.722 26.25,220.2 27.683,220.674 29.275,220.675L35.6,220.675 40.25,223.925Q40.615,224.175 41.025,224.3 41.43,224.425 41.85,224.425 42.27,224.425 42.675,224.3 43.072,224.175 43.425,223.925L48.075,220.675 102.05,220.675"/><path fill="none" stroke="#FFF" stroke-width="1.8" stroke-linecap="round" stroke-linejoin="round" d="M102.05,220.675L102.05,147.35 48.55,147.35 43.425,150.925Q42.697,151.426 41.85,151.425 41.43,151.425 41.025,151.3 40.615,151.175 40.25,150.925L35.125,147.35 29.275,147.35Q27.683,147.351 26.25,147.825 24.831,148.303 23.65,149.175 22.455,150.055 21.575,151.25 20.703,152.431 20.225,153.85 19.751,155.283 19.75,156.875L19.75,211.15Q19.751,212.742 20.225,214.175 20.703,215.594 21.575,216.775 22.455,217.97 23.65,218.85 24.831,219.722 26.25,220.2 27.683,220.674 29.275,220.675L35.6,220.675 40.25,223.925Q40.615,224.175 41.025,224.3 41.43,224.425 41.85,224.425 42.27,224.425 42.675,224.3 43.072,224.175 43.425,223.925L48.075,220.675 102.05,220.675"/></g><g><path fill="none" stroke="#221F1F" stroke-width="7" stroke-linecap="round" stroke-linejoin="round" d="M45,185.875L67.675,185.875"/><path fill="none" stroke="#221F1F" stroke-width="7" stroke-linecap="round" stroke-linejoin="round" d="M68.85,185.875L57.85,196.6M68.85,185.875L57.85,175.15"/></g></g><g><g><path fill="#FFC85E" d="M35.125,221.325L29.275,221.325Q28.614,221.321 27.975,221.4 27.334,221.483 26.725,221.65 26.121,221.827 25.55,222.075 24.979,222.315 24.45,222.625 23.914,222.931 23.425,223.3 22.948,223.684 22.525,224.125 22.084,224.549 21.7,225.025 21.331,225.515 21.025,226.05 20.715,226.579 20.475,227.15 20.225,227.721 20.05,228.325 19.883,228.934 19.8,229.575 19.721,230.214 19.725,230.875L19.725,285.15Q19.721,285.811 19.8,286.45 19.883,287.09 20.05,287.7 20.225,288.304 20.475,288.875 20.715,289.446 21.025,289.975 21.331,290.51 21.7,291 22.084,291.489 22.525,291.925 22.948,292.354 23.425,292.725 23.914,293.106 24.45,293.425 24.979,293.736 25.55,293.975 26.121,294.212 26.725,294.375 27.334,294.542 27.975,294.625 28.614,294.717 29.275,294.725L35.6,294.725 40.225,297.95Q40.59,298.201 41,298.325 41.417,298.45 41.85,298.45 42.271,298.45 42.675,298.325 43.085,298.201 43.45,297.95L48.075,294.725 102.05,294.725 102.075,294.675 102.075,221.35 102.05,221.325 48.525,221.325 43.425,224.9Q43.059,225.149 42.65,225.275 42.258,225.386 41.85,225.375 41.429,225.386 41.025,225.275 40.628,225.149 40.275,224.9L35.125,221.325"/><path fill="#FFC85E" stroke-width="1.8" stroke-linecap="round" stroke-linejoin="round" d="M102.05,294.675L102.05,221.35 48.55,221.35 43.425,224.925Q42.697,225.426 41.85,225.425 41.43,225.425 41.025,225.3 40.615,225.175 40.25,224.925L35.125,221.35 29.275,221.35Q27.683,221.351 26.25,221.825 24.831,222.303 23.65,223.175 22.455,224.055 21.575,225.25 20.703,226.431 20.225,227.85 19.751,229.283 19.75,230.875L19.75,285.15Q19.751,286.742 20.225,288.175 20.703,289.594 21.575,290.775 22.455,291.97 23.65,292.85 24.831,293.722 26.25,294.2 27.683,294.674 29.275,294.675L35.6,294.675 40.25,297.925Q40.615,298.175 41.025,298.3 41.43,298.425 41.85,298.425 42.27,298.425 42.675,298.3 43.072,298.175 43.425,297.925L48.075,294.675 102.05,294.675"/><path fill="none" stroke="#FFF" stroke-width="1.8" stroke-linecap="round" stroke-linejoin="round" d="M102.05,294.675L102.05,221.35 48.55,221.35 43.425,224.925Q42.697,225.426 41.85,225.425 41.43,225.425 41.025,225.3 40.615,225.175 40.25,224.925L35.125,221.35 29.275,221.35Q27.683,221.351 26.25,221.825 24.831,222.303 23.65,223.175 22.455,224.055 21.575,225.25 20.703,226.431 20.225,227.85 19.751,229.283 19.75,230.875L19.75,285.15Q19.751,286.742 20.225,288.175 20.703,289.594 21.575,290.775 22.455,291.97 23.65,292.85 24.831,293.722 26.25,294.2 27.683,294.674 29.275,294.675L35.6,294.675 40.25,297.925Q40.615,298.175 41.025,298.3 41.43,298.425 41.85,298.425 42.27,298.425 42.675,298.3 43.072,298.175 43.425,297.925L48.075,294.675 102.05,294.675"/></g><g><path fill="none" stroke="#221F1F" stroke-width="7" stroke-linecap="round" stroke-linejoin="round" d="M45,259.875L67.675,259.875"/><path fill="none" stroke="#221F1F" stroke-width="7" stroke-linecap="round" stroke-linejoin="round" d="M68.85,259.875L57.85,270.6M68.85,259.875L57.85,249.15"/></g></g></g></g><g id="pieza 1_0.0.1"><g><g><path fill="#FFC85E" d="M35.125,73.325L29.275,73.325Q28.614,73.321 27.975,73.4 27.334,73.483 26.725,73.65 26.121,73.827 25.55,74.075 24.979,74.315 24.45,74.625 23.914,74.931 23.425,75.3 22.948,75.684 22.525,76.125 22.084,76.549 21.7,77.025 21.331,77.515 21.025,78.05 20.715,78.579 20.475,79.15 20.225,79.721 20.05,80.325 19.883,80.934 19.8,81.575 19.721,82.214 19.725,82.875L19.725,137.15Q19.721,137.811 19.8,138.45 19.883,139.09 20.05,139.7 20.225,140.304 20.475,140.875 20.715,141.446 21.025,141.975 21.331,142.51 21.7,143 22.084,143.489 22.525,143.925 22.948,144.354 23.425,144.725 23.914,145.106 24.45,145.425 24.979,145.736 25.55,145.975 26.121,146.212 26.725,146.375 27.334,146.542 27.975,146.625 28.614,146.717 29.275,146.725L35.6,146.725 40.225,149.95Q40.59,150.201 41,150.325 41.417,150.45 41.85,150.45 42.271,150.45 42.675,150.325 43.085,150.201 43.45,149.95L48.075,146.725 102.05,146.725 102.075,146.675 102.075,73.35 102.05,73.325 48.525,73.325 43.425,76.9Q43.059,77.149 42.65,77.275 42.258,77.386 41.85,77.375 41.429,77.386 41.025,77.275 40.628,77.149 40.275,76.9L35.125,73.325"/><path fill="#FFC85E" stroke-width="1.8" stroke-linecap="round" stroke-linejoin="round" d="M102.05,146.675L102.05,73.35 48.55,73.35 43.425,76.925Q42.697,77.426 41.85,77.425 41.43,77.425 41.025,77.3 40.615,77.175 40.25,76.925L35.125,73.35 29.275,73.35Q27.683,73.351 26.25,73.825 24.831,74.303 23.65,75.175 22.455,76.055 21.575,77.25 20.703,78.431 20.225,79.85 19.751,81.283 19.75,82.875L19.75,137.15Q19.751,138.742 20.225,140.175 20.703,141.594 21.575,142.775 22.455,143.97 23.65,144.85 24.831,145.722 26.25,146.2 27.683,146.674 29.275,146.675L35.6,146.675 40.25,149.925Q40.615,150.175 41.025,150.3 41.43,150.425 41.85,150.425 42.27,150.425 42.675,150.3 43.072,150.175 43.425,149.925L48.075,146.675 102.05,146.675"/><path fill="none" stroke="#FFF" stroke-width="1.8" stroke-linecap="round" stroke-linejoin="round" d="M102.05,146.675L102.05,73.35 48.55,73.35 43.425,76.925Q42.697,77.426 41.85,77.425 41.43,77.425 41.025,77.3 40.615,77.175 40.25,76.925L35.125,73.35 29.275,73.35Q27.683,73.351 26.25,73.825 24.831,74.303 23.65,75.175 22.455,76.055 21.575,77.25 20.703,78.431 20.225,79.85 19.751,81.283 19.75,82.875L19.75,137.15Q19.751,138.742 20.225,140.175 20.703,141.594 21.575,142.775 22.455,143.97 23.65,144.85 24.831,145.722 26.25,146.2 27.683,146.674 29.275,146.675L35.6,146.675 40.25,149.925Q40.615,150.175 41.025,150.3 41.43,150.425 41.85,150.425 42.27,150.425 42.675,150.3 43.072,150.175 43.425,149.925L48.075,146.675 102.05,146.675"/></g><g><path fill="none" stroke="#221F1F" stroke-width="7" stroke-linecap="round" stroke-linejoin="round" d="M45,111.875L67.675,111.875"/><path fill="none" stroke="#221F1F" stroke-width="7" stroke-linecap="round" stroke-linejoin="round" d="M68.85,111.875L57.85,122.6M68.85,111.875L57.85,101.15"/></g></g></g></g></g><animate attributeName="display" repeatCount="indefinite" dur="13.083s" keyTimes="0;0.239;1" values="none;inline;inline"/></g><g style="display:none;"><g id="igual" transform="matrix(0.3 0 0 0.3 380.95 252.45)"><animateTransform attributeName="transform" additive="replace" type="translate" repeatCount="indefinite" dur="13.083s" keyTimes="0;0.287;0.29;0.293;0.296;0.299;0.303;0.306;0.309;1" values="387.55,255.45;387.55,255.45;387.541,255.45;387.546,255.45;387.526,255.45;387.56,255.45;387.576,255.433;387.587,255.417;387.55,255.45;387.55,255.45" calcMode="discrete"/><animateTransform attributeName="transform" additive="sum" type="scale" repeatCount="indefinite" dur="13.083s" keyTimes="0;0.287;0.29;0.293;0.296;0.299;0.303;0.306;0.309;1" values="0.3,0.3;0.3,0.3;0.495,0.495;0.69,0.69;0.885,0.885;1.08,1.08;1.053,1.053;1.027,1.027;1,1;1,1" calcMode="discrete"/><animateTransform attributeName="transform" additive="sum" type="translate" repeatCount="indefinite" dur="13.083s" keyTimes="0;0.287;0.29;0.293;0.296;0.299;0.303;0.306;1" values="-22,-10;-22,-10;-21.9,-10;-21.95,-10;-21.95,-10;-22,-10;-22.05,-10;-22,-10;-22,-10" calcMode="discrete"/><g><g id="igual_0.0.0"><path fill="none" stroke="#231F20" stroke-width="10" stroke-linecap="round" stroke-linejoin="round" d="M0.051,0.051L44.051,0.051"/></g><g id="igual_0.0.1"><path fill="none" stroke="#231F20" stroke-width="10" stroke-linecap="round" stroke-linejoin="round" d="M0.051,20.051L44.051,20.051"/></g></g></g><animate attributeName="display" repeatCount="indefinite" dur="13.083s" keyTimes="0;0.287;1" values="none;inline;inline"/></g><g style="display:none;"><g id="pieza_2" transform="matrix(0.177 0 0 0.177 540.2 226.25)"><animateTransform attributeName="transform" additive="replace" type="translate" repeatCount="indefinite" dur="13.083s" keyTimes="0;0.331;0.334;0.338;0.341;0.344;0.347;0.35;0.354;0.357;0.36;0.363;0.366;0.369;1" values="557.549,248.452;557.549,248.452;557.546,245.889;557.552,243.348;557.556,240.769;557.567,238.242;557.581,235.631;557.522,233.086;557.568,230.557;557.574,227.98;557.589,225.45;557.526,225.416;557.563,225.433;557.55,225.45;557.55,225.45" calcMode="discrete"/><animateTransform attributeName="transform" additive="sum" type="scale" repeatCount="indefinite" dur="13.083s" keyTimes="0;0.331;0.334;0.338;0.341;0.344;0.347;0.35;0.354;0.357;0.36;0.363;0.366;0.369;1" values="0.177,0.177;0.177,0.177;0.271,0.271;0.364,0.364;0.458,0.458;0.551,0.551;0.645,0.645;0.738,0.738;0.832,0.832;0.925,0.925;1.019,1.019;1.013,1.013;1.006,1.006;1,1;1,1" calcMode="discrete"/><animateTransform attributeName="transform" additive="sum" type="translate" repeatCount="indefinite" dur="13.083s" keyTimes="0;0.331;0.334;0.338;0.341;0.344;0.347;0.35;0.354;0.357;0.36;0.363;0.366;1" values="-97.95,-125.35;-97.95,-125.35;-97.9,-125.4;-97.9,-125.35;-97.9,-125.35;-98,-125.35;-98,-125.3;-97.9,-125.35;-97.95,-125.35;-98,-125.35;-98,-125.2;-97.95,-125.15;-97.95,-125.2;-97.95,-125.2" calcMode="discrete"/><g><g id="pieza 2_0.0.0"><path fill="#9BCD72" d="M33.25,73.775L29.825,73.775Q29.164,73.771 28.525,73.85 27.884,73.933 27.275,74.1 26.671,74.277 26.1,74.525 25.529,74.765 25,75.075 24.464,75.381 23.975,75.75 23.498,76.134 23.075,76.575 22.634,76.999 22.25,77.475 21.881,77.965 21.575,78.5 21.265,79.029 21.025,79.6 20.775,80.171 20.6,80.775 20.433,81.384 20.35,82.025 20.271,82.664 20.275,83.325L20.275,225.6Q20.271,226.261 20.35,226.9 20.433,227.54 20.6,228.15 20.775,228.754 21.025,229.325 21.265,229.896 21.575,230.425 21.881,230.96 22.25,231.45 22.634,231.939 23.075,232.375 23.498,232.803 23.975,233.175 24.464,233.543 25,233.85 25.529,234.173 26.1,234.425 26.671,234.661 27.275,234.825 27.885,234.992 28.525,235.075 29.164,235.168 29.825,235.175L113.6,235.175 113.625,235.125 113.625,224.325 113.6,224.3 69.6,224.3 65.2,227.375Q64.732,227.705 64.2,227.875 63.643,228.047 63.05,228.05 62.469,228.047 61.925,227.875 61.391,227.705 60.925,227.375L56.525,224.3 50.5,224.3Q48.302,224.284 46.25,223.475 44.207,222.662 42.575,221.225 40.939,219.777 39.975,217.875 39.022,215.993 39,213.825L39,156.525Q39.008,155.8 39.125,155.1 39.234,154.409 39.45,153.75 39.666,153.081 39.975,152.45 40.294,151.827 40.7,151.25 41.102,150.663 41.575,150.125 42.042,149.596 42.575,149.125 43.111,148.644 43.7,148.225 44.302,147.816 44.95,147.475 45.582,147.137 46.25,146.875 46.925,146.609 47.625,146.425 48.329,146.23 49.05,146.125 49.771,146.042 50.5,146.05L56.35,146.05Q56.504,146.041 56.65,146.075 56.784,146.117 56.9,146.2L62.025,149.775Q62.259,149.94 62.525,150.025 62.782,150.102 63.05,150.1 63.33,150.102 63.6,150.025 63.867,149.94 64.1,149.775L69.225,146.2Q69.341,146.117 69.475,146.075 69.621,146.041 69.775,146.05L113.6,146.05 113.625,146 113.625,73.8 113.6,73.775 46.225,73.775 40.625,77.55Q40.473,77.66 40.25,77.725 40.017,77.778 39.75,77.775 39.496,77.778 39.275,77.725 39.052,77.661 38.9,77.55L33.25,73.775"/></g><g id="pieza 2_0.0.1"><path fill="#EE5D80" d="M83.8,5.85L8.65,5.85 8.65,68.95 83.8,68.95 83.8,5.85"/></g><g id="pieza 2_0.0.2"><path fill="#EE5D80" d="M92.3,-0.025L9.525,-0.025Q8.864,-0.029 8.225,0.05 7.584,0.133 6.975,0.3 6.371,0.477 5.8,0.725 5.229,0.965 4.7,1.275 4.164,1.581 3.675,1.95 3.198,2.334 2.775,2.775 2.334,3.199 1.95,3.675 1.581,4.165 1.275,4.7 0.965,5.229 0.725,5.8 0.475,6.371 0.3,6.975 0.133,7.584 0.05,8.225 -0.029,8.864 -0.025,9.525L-0.025,240.8Q-0.029,241.461 0.05,242.1 0.133,242.74 0.3,243.35 0.475,243.954 0.725,244.525 0.965,245.096 1.275,245.625 1.581,246.16 1.95,246.65 2.334,247.139 2.775,247.575 3.198,248.004 3.675,248.375 4.164,248.744 4.7,249.05 5.229,249.373 5.8,249.625 6.371,249.862 6.975,250.025 7.585,250.19 8.225,250.275 8.864,250.366 9.525,250.375L92.3,250.375 92.325,250.325 92.325,236.525 92.3,236.5 48.3,236.5 43.9,239.575Q43.433,239.905 42.9,240.075 42.344,240.247 41.75,240.25 41.169,240.247 40.625,240.075 40.091,239.905 39.625,239.575L35.225,236.5 29.2,236.5Q27.02,236.479 25.125,235.525 23.223,234.561 21.775,232.925 20.338,231.291 19.525,229.25 18.716,227.21 18.7,225.025L18.7,82.725Q18.704,82.001 18.8,81.3 18.892,80.609 19.075,79.95 19.259,79.281 19.525,78.65 19.799,78.015 20.15,77.425 20.49,76.851 20.9,76.325 21.306,75.797 21.775,75.325 22.247,74.844 22.775,74.425 23.313,74.015 23.9,73.675 24.49,73.336 25.125,73.075 25.744,72.809 26.4,72.625 27.071,72.43 27.775,72.325 28.476,72.242 29.2,72.25L33.05,72.25Q33.205,72.241 33.35,72.275 33.484,72.317 33.6,72.4L38.725,75.975Q38.958,76.14 39.225,76.225 39.481,76.302 39.75,76.3 40.03,76.302 40.3,76.225 40.568,76.14 40.8,75.975L45.925,72.4Q46.04,72.317 46.175,72.275 46.321,72.241 46.475,72.25L92.3,72.25 92.325,72.2 92.325,0 92.3,-0.025"/></g><g id="pieza 2_0.0.3"><path fill="#FFC85F" d="M62.45,152.65Q62.05,152.5 61.7,152.25L56.55,148.7 50.7,148.7Q50,148.65 49.4,148.75 48.75,148.85 48.15,149 47.5,149.2 46.95,149.45 46.4,149.65 45.85,150 45.3,150.3 44.85,150.65 44.35,151.05 43.95,151.5 43.5,151.9 43.1,152.4 42.75,152.85 42.45,153.4 42.1,153.95 41.9,154.5 41.65,155.05 41.45,155.7 41.3,156.3 41.2,156.95 41.1,157.55 41.15,158.25L41.15,212.5Q41.1,213.15 41.2,213.8 41.3,214.45 41.45,215.05 41.65,215.65 41.9,216.25 42.1,216.8 42.45,217.35 42.75,217.85 43.1,218.35 43.5,218.85 43.95,219.3 44.35,219.7 44.85,220.1 45.3,220.45 45.85,220.8 46.4,221.1 46.95,221.35 47.5,221.55 48.15,221.75 48.75,221.9 49.4,222 50,222.05 50.7,222.1L57,222.1 61.65,225.3Q62,225.55 62.4,225.7 62.8,225.8 63.25,225.8 63.65,225.8 64.1,225.7 64.5,225.55 64.85,225.3L69.5,222.1 123.45,222.1 123.5,222.05 123.5,148.7 69.95,148.7 64.85,152.25Q64.45,152.5 64.05,152.65 63.65,152.75 63.25,152.75 62.85,152.75 62.45,152.65"/></g><g id="pieza 2_0.0.4"><g><path fill="#221F1F" d="M63.9,37.4L63.9,37.35 41.775,24.575 41.725,24.6 41.75,25.8 41.75,24.6 63.875,37.375 41.75,50.15 41.75,50.2 41.775,50.2 63.9,37.4"/><path fill="#221F1F" d="M41.75,50.15L63.875,37.375 41.75,24.6 41.75,25.8Q41.748,26 41.75,26.2 41.744,38.173 41.75,50.15"/><path fill="none" stroke="#221F1F" stroke-width="5" stroke-linecap="round" stroke-linejoin="round" d="M41.75,26.2Q41.748,26 41.75,25.8M41.75,50.15Q41.744,38.173 41.75,26.2"/><path fill="none" stroke="#221F1F" stroke-width="5" stroke-linecap="round" stroke-linejoin="round" d="M41.75,25.8L41.75,24.6 63.875,37.375 41.75,50.15"/></g></g><g id="pieza 2_0.0.5"><g><path fill="none" stroke="#221F1F" stroke-width="7" stroke-linecap="round" stroke-linejoin="round" d="M51.75,126.025L51.75,111.55M51.75,126.025Q51.777,127.272 52.6,128.1 53.428,128.936 54.675,128.975L85.175,128.975"/><path fill="none" stroke="#221F1F" stroke-width="7" stroke-linecap="round" stroke-linejoin="round" d="M88.075,101.525L88.075,116.025M88.075,101.525Q88.061,100.922 87.825,100.4 87.6,99.861 87.2,99.45 86.802,99.05 86.275,98.825 85.74,98.601 85.125,98.6L54.65,98.6"/><path fill="#221F1F" d="M77.35,117.625L77.2,117.625Q76.813,117.622 76.45,117.8 76.161,117.944 75.95,118.175 75.74,118.408 75.625,118.7 75.519,118.996 75.525,119.325L75.525,139Q75.519,139.329 75.625,139.625 75.74,139.917 75.95,140.15 76.16,140.394 76.45,140.55 76.632,140.635 76.825,140.675 77.011,140.722 77.2,140.725 77.48,140.731 77.75,140.65 78.004,140.555 78.225,140.375L91.075,130.55Q91.294,130.389 91.45,130.175 91.598,129.956 91.675,129.7 91.751,129.447 91.75,129.175 91.749,128.761 91.575,128.4 91.396,128.045 91.075,127.8L78.225,117.95Q77.824,117.662 77.35,117.625"/><path fill="#221F1F" d="M62.725,87.625L62.55,87.625Q62.322,87.618 62.1,87.675 61.805,87.757 61.55,87.95L48.7,97.8Q48.481,97.961 48.325,98.175 48.177,98.395 48.1,98.65 48.023,98.903 48.025,99.175 48.026,99.589 48.2,99.95 48.377,100.305 48.7,100.55L61.55,110.375Q61.771,110.555 62.025,110.65 62.281,110.731 62.55,110.725 62.751,110.722 62.95,110.675 63.142,110.635 63.325,110.55 63.614,110.394 63.825,110.15 64.023,109.917 64.125,109.625 64.244,109.329 64.25,109L64.25,89.325Q64.244,88.996 64.125,88.7 64.023,88.408 63.825,88.175 63.615,87.944 63.325,87.8 63.036,87.654 62.725,87.625"/></g></g><g id="pieza 2_0.0.6"><path fill="#26A7DF" d="M186.375,73.675L180.8,73.675 180.5,73.675 167.1,73.675 113.6,73.675 113.575,73.7 113.575,146.025 113.6,146.075 186.375,146.075Q187.036,146.067 187.675,145.975 188.303,145.892 188.9,145.725 189.504,145.561 190.075,145.325 190.659,145.086 191.2,144.775 191.723,144.457 192.2,144.075 192.689,143.703 193.125,143.275 193.553,142.839 193.925,142.35 194.307,141.86 194.625,141.325 194.935,140.797 195.175,140.225 195.411,139.654 195.575,139.05 195.741,138.44 195.825,137.8 195.916,137.162 195.925,136.5L195.925,83.225Q195.916,82.564 195.825,81.925 195.741,81.284 195.575,80.675 195.411,80.071 195.175,79.5 194.935,78.929 194.625,78.4 194.307,77.865 193.925,77.375 193.553,76.899 193.125,76.475 192.689,76.034 192.2,75.65 191.723,75.281 191.2,74.975 190.659,74.665 190.075,74.425 189.504,74.177 188.9,74 188.303,73.833 187.675,73.75 187.036,73.671 186.375,73.675"/></g><g id="pieza 2_0.0.7"><path fill="#26A7DF" d="M115.85,78.775L115.775,78.775Q115.649,78.768 115.525,78.8 115.364,78.854 115.225,78.975L108.7,84.8Q108.537,84.954 108.45,85.175 108.369,85.384 108.375,85.625 108.368,85.878 108.45,86.1 108.537,86.307 108.7,86.45L115.225,92.275Q115.354,92.388 115.5,92.45 115.634,92.501 115.775,92.5 115.969,92.493 116.15,92.375 116.308,92.288 116.425,92.15 116.524,92.005 116.575,91.825 116.641,91.647 116.65,91.45L116.65,79.8Q116.641,79.603 116.575,79.425 116.524,79.244 116.425,79.1 116.308,78.961 116.15,78.875 116.006,78.789 115.85,78.775"/></g><g id="pieza 2_0.0.8"><path fill="#9BCD72" d="M48.2,233.325L35.25,233.325Q35.039,233.319 34.85,233.35 34.655,233.396 34.5,233.475 34.346,233.535 34.25,233.625 34.096,233.792 34.125,233.975 34.152,234.141 34.35,234.275L40.825,238.65Q40.988,238.762 41.225,238.825 41.459,238.879 41.725,238.875 41.992,238.879 42.225,238.825 42.46,238.762 42.625,238.65L49.1,234.275Q49.216,234.194 49.275,234.1 49.344,234.014 49.35,233.925 49.351,233.768 49.225,233.625 49.116,233.535 48.95,233.475 48.794,233.396 48.6,233.35 48.41,233.319 48.2,233.325"/></g></g></g><animate attributeName="display" repeatCount="indefinite" dur="13.083s" keyTimes="0;0.331;1" values="none;inline;inline"/></g><g style="display:none;"><g id="3" transform="matrix(1 0 0 1 605.8 165.6)"><animateTransform attributeName="transform" additive="replace" type="translate" repeatCount="indefinite" dur="13.083s" keyTimes="0;0.691;0.694;0.697;0.701;0.704;0.707;0.717;0.718;1" values="605.8,165.6;605.8,165.6;605.8,172.6;605.8,179.6;605.8,186.6;605.8,193.6;605.8,200.6;605.8,200.6;605.8,199.55;605.8,199.55" calcMode="discrete"/><g id="3_0.0"><path fill="#221F1F" d="M1.701,3.051Q1.051,3.501 0.801,4.001 0.501,4.551 0.501,5.301 0.501,6.351 1.151,7.151 1.751,7.901 2.651,7.901L3.551,7.751 7.651,5.651Q9.001,5.151 10.551,5.101 12.451,5.101 13.451,6.101 14.501,7.101 14.501,8.801 14.501,10.701 13.251,11.501 12.051,12.401 9.501,12.401L7.751,12.401Q6.701,12.401 6.051,13.151 5.451,13.901 5.401,14.901 5.401,15.951 6.051,16.651 6.651,17.401 7.751,17.401L10.201,17.401Q12.851,17.401 14.051,18.301 15.251,19.151 15.251,21.101 15.251,23.151 14.101,24.051 13.001,24.951 10.401,25.001 8.601,25.001 7.301,24.451L3.101,22.351 2.201,22.201Q1.301,22.201 0.701,22.951 0.051,23.801 0.051,24.801 0.051,25.551 0.351,26.051 0.601,26.651 1.201,27.051 3.001,28.501 5.501,29.251 8.001,30.001 10.651,30.001 13.901,30.001 16.351,29.051 18.851,28.001 20.101,26.151 21.451,24.301 21.401,21.751 21.401,19.051 20.051,17.251 18.651,15.401 16.051,14.651 18.251,13.851 19.451,12.101 20.651,10.301 20.701,7.951 20.701,5.551 19.451,3.801 18.251,2.001 16.001,1.001 13.751,0.051 10.801,0.051 8.351,0.051 5.851,0.851 3.451,1.601 1.701,3.051"/></g></g><animate attributeName="display" repeatCount="indefinite" dur="13.083s" keyTimes="0;0.691;1" values="none;inline;inline"/></g><g style="display:none;"><g id="2" transform="matrix(1 0 0 1 605.8 165.6)"><animateTransform attributeName="transform" additive="replace" type="translate" repeatCount="indefinite" dur="13.083s" keyTimes="0;0.573;0.576;0.58;0.583;0.586;0.589;0.599;0.6;0.675;0.676;0.678;0.682;0.685;0.688;1" values="605.8,165.6;605.8,165.6;605.8,172.6;605.8,179.6;605.8,186.6;605.8,193.6;605.8,200.6;605.8,200.6;605.8,199.25;605.8,199.25;605.8,197.8;605.8,211.1;605.8,224.4;605.8,237.7;605.8,251;605.8,251" calcMode="discrete"/><g id="2_0.0"><path fill="#221F1F" d="M15.601,1.051Q13.351,0.001 10.401,0.051 8.001,0.051 5.551,0.851 3.101,1.701 1.251,3.051 0.601,3.451 0.351,3.951 0.051,4.501 0.051,5.301 0.051,6.351 0.701,7.151 1.301,8.001 2.201,8.001L3.051,7.801 7.201,5.651Q8.551,5.151 10.101,5.101 12.001,5.101 12.901,6.001 13.901,6.901 13.851,8.601 13.851,11.401 10.801,14.601L1.651,24.301Q0.451,25.501 0.451,27.001 0.451,28.201 1.201,28.951 1.951,29.701 3.251,29.701L18.751,29.701Q21.851,29.701 21.801,27.101 21.801,24.551 18.751,24.551L9.101,24.551 15.601,17.651Q18.101,15.051 19.151,12.851 20.201,10.701 20.251,8.151 20.251,5.751 19.001,3.901 17.801,2.051 15.601,1.051"/></g></g><animate attributeName="display" repeatCount="indefinite" dur="13.083s" keyTimes="0;0.573;0.691;1" values="none;inline;none;none"/></g><g style="display:none;"><g id="1" transform="matrix(1 0 0 1 605.8 166.6)"><animateTransform attributeName="transform" additive="replace" type="translate" repeatCount="indefinite" dur="13.083s" keyTimes="0;0.452;0.455;0.459;0.462;0.465;0.468;0.478;0.479;0.557;0.558;0.561;0.564;0.567;0.57;1" values="605.8,166.6;605.8,166.6;605.8,173.4;605.8,180.2;605.8,187;605.8,193.8;605.8,200.6;605.8,200.6;605.8,199.7;605.8,199.7;605.8,198.85;605.8,212.15;605.8,225.45;605.8,238.75;605.8,252.05;605.8,252.05" calcMode="discrete"/><g id="1_0.0"><path fill="#221F1F" d="M0.801,9.051Q1.501,9.901 2.551,9.901 3.151,9.901 3.801,9.551L7.451,7.351 7.451,24.351 3.601,24.351Q0.551,24.351 0.501,26.901 0.501,29.551 3.601,29.501L17.801,29.501Q20.901,29.501 20.851,26.901 20.851,24.351 17.801,24.351L13.951,24.351 13.951,3.201Q13.951,1.801 13.051,0.901 12.251,0.101 10.851,0.051 9.351,0.051 7.901,0.901L1.351,4.851Q0.101,5.601 0.051,7.101 0.051,8.151 0.801,9.051"/></g></g><animate attributeName="display" repeatCount="indefinite" dur="13.083s" keyTimes="0;0.452;0.573;1" values="none;inline;none;none"/></g><g style="display:none;"><path fill="#FFF" d="M593.168,133.567L593.168,174.047 636.918,174.047 636.918,133.567 593.168,133.567"/><path fill="#FFF" d="M593.168,246.316L593.168,286.796 636.918,286.796 636.918,246.316 593.168,246.316"/><animate attributeName="display" repeatCount="indefinite" dur="13.083s" keyTimes="0;0.452;1" values="none;inline;inline"/></g><g><g id="lamparita" transform="matrix(1 0 0 1 347.2 145.6)"><g id="lamparita_0.0"><g><g><path fill="#BABCBE" d="M58,129.65Q58,123.65 53.75,119.4 49.55,115.2 43.55,115.2 37.55,115.2 33.3,119.4 29.1,123.65 29.1,129.65L29.1,141.5Q29.1,147.5 33.3,151.7 37.55,155.95 43.55,155.95 49.55,155.95 53.75,151.7 58,147.5 58,141.5L58,129.65"/><path fill="#FFF" d="M66.35,133.5L66.35,121.9 19.05,121.9 19.05,133.5 66.35,133.5"/><path fill="#FAB631" d="M13.25,47.75Q0.75,60.3 0.75,78.05 0.75,95.8 13.25,108.3 25.8,120.85 43.55,120.85 61.3,120.85 73.8,108.3 86.35,95.8 86.35,78.05 86.35,60.3 73.8,47.75 61.3,35.25 43.55,35.25 25.8,35.25 13.25,47.75"/><path fill="none" stroke="#BABCBE" stroke-width="15" stroke-linecap="round" stroke-linejoin="round" d="M24.8,120.875L60.875,120.875"/><path fill="none" stroke="#BABCBE" stroke-width="15" stroke-linecap="round" stroke-linejoin="round" d="M24.8,135.05L60.875,135.05"/></g><path fill="#221F1F" d="M54.4,88.125L32.7,88.125 32.675,88.15Q32.678,88.9 32.775,89.625 32.866,90.355 33.05,91.05 33.246,91.745 33.525,92.4 33.798,93.049 34.15,93.65 34.501,94.251 34.925,94.8 35.354,95.355 35.85,95.85 36.345,96.345 36.9,96.775 37.449,97.198 38.05,97.55 38.664,97.902 39.325,98.175 39.969,98.454 40.65,98.65 41.344,98.847 42.075,98.95 42.8,99.047 43.55,99.05 44.3,99.047 45.025,98.95 45.756,98.847 46.45,98.65 47.145,98.454 47.8,98.175 48.449,97.902 49.05,97.55 49.651,97.198 50.2,96.775 50.755,96.345 51.25,95.85 51.746,95.355 52.175,94.8 52.599,94.251 52.95,93.65 53.315,93.049 53.6,92.4 53.867,91.745 54.05,91.05 54.247,90.355 54.35,89.625 54.447,88.9 54.45,88.15L54.4,88.125"/><path fill="#221F1F" d="M56.495,68.048Q54.484,68.048 53.057,69.41 51.695,70.837 51.695,72.848 51.695,74.859 53.057,76.221 54.484,77.648 56.495,77.648 58.506,77.648 59.868,76.221 61.295,74.859 61.295,72.848 61.295,70.837 59.868,69.41 58.506,68.048 56.495,68.048"/><path fill="#221F1F" d="M32.345,68.048Q30.334,68.048 28.907,69.41 27.545,70.837 27.545,72.848 27.545,74.859 28.907,76.221 30.334,77.648 32.345,77.648 34.356,77.648 35.718,76.221 37.145,74.859 37.145,72.848 37.145,70.837 35.718,69.41 34.356,68.048 32.345,68.048"/></g></g></g><animate attributeName="display" repeatCount="indefinite" dur="13.083s" keyTimes="0;0.172;1" values="inline;none;none"/></g><g><use xlink:href="#destello" transform="matrix(1 0 0 1 345.7 142.95)"/><animate attributeName="display" repeatCount="indefinite" dur="13.083s" keyTimes="0;0.025;0.057;0.083;0.115;0.172;1" values="inline;none;inline;none;inline;none;none"/></g><g style="display:none;"><use xlink:href="#flecha_gris" transform="matrix(1 0 0 1 272.35 202.45)" filter="url(#filter8)"><animateTransform attributeName="transform" additive="replace" type="translate" dur="13.083s" keyTimes="0;1" values="0,0;0,0" fill="freeze"/><animateTransform attributeName="transform" additive="sum" type="translate" repeatCount="indefinite" dur="13.083s" keyTimes="0;0.401;0.402;0.404;0.405;0.408;0.409;0.411;0.412;0.414;0.415;0.417;0.418;0.42;0.421;0.424;0.425;0.427;0.428;0.43;0.431;0.433;0.434;0.436;0.437;0.439;0.44;0.441;0.442;0.443;1" values="284.25,213.15;284.25,213.15;302.755,212.255;302.755,212.255;321.165,211.655;321.165,211.655;339.562,211.503;339.562,211.503;357.955,211.884;357.955,211.884;376.54,212.772;376.54,212.772;394.988,214.255;394.988,214.255;413.474,216.485;413.474,216.485;431.903,219.553;431.903,219.553;450.032,223.87;450.032,223.87;467.782,229.262;467.782,229.262;485.214,236.155;485.214,236.155;501.797,244.737;501.797,244.737;517.212,255.614;517.212,255.614;530.83,268.817;0;0" calcMode="discrete"/><animateTransform attributeName="transform" additive="sum" type="translate" repeatCount="indefinite" dur="13.083s" keyTimes="0;0.443;1" values="0;530.83,268.817;530.83,268.817" calcMode="discrete"/><animateTransform attributeName="transform" additive="sum" type="rotate" repeatCount="indefinite" dur="13.083s" keyTimes="0;0.401;0.402;0.404;0.405;0.408;0.409;0.411;0.412;0.414;0.415;0.417;0.418;0.42;0.421;0.424;0.425;0.427;0.428;0.43;0.431;0.433;0.434;0.436;0.437;0.439;0.44;0.441;0.442;0.443;1" values="0,0,0;0,0,0;1.038,0,0;1.038,0,0;2.262,0,0;2.262,0,0;3.299,0,0;3.299,0,0;4.526,0,0;4.526,0,0;5.564,0,0;5.564,0,0;6.789,0,0;6.789,0,0;8.049,0,0;8.049,0,0;13.321,0,0;13.321,0,0;18.816,0,0;18.816,0,0;24.316,0,0;24.316,0,0;29.816,0,0;29.816,0,0;35.318,0,0;35.318,0,0;40.634,0,0;40.634,0,0;46.161,0,0;0;0" calcMode="discrete"/><animateTransform attributeName="transform" additive="sum" type="rotate" repeatCount="indefinite" dur="13.083s" keyTimes="0;0.443;1" values="0;46.161,0,0;46.161,0,0" calcMode="discrete"/><animateTransform attributeName="transform" additive="sum" type="scale" repeatCount="indefinite" dur="13.083s" keyTimes="0;0.404;0.405;0.417;0.418;0.427;0.428;0.441;0.442;0.443;1" values="1,1;1,1;0.999,0.999;0.999,0.999;0.998,0.998;0.998,0.998;0.997,0.997;0.997,0.997;0.998,0.998;1;1" calcMode="discrete"/><animateTransform attributeName="transform" additive="sum" type="scale" repeatCount="indefinite" dur="13.083s" keyTimes="0;0.443;1" values="1;0.998,0.998;0.998,0.998" calcMode="discrete"/><animateTransform attributeName="transform" additive="sum" type="translate" repeatCount="indefinite" dur="13.083s" keyTimes="0;0.401;0.402;0.404;0.405;0.408;0.409;0.411;0.412;0.414;0.415;0.417;0.418;0.424;0.425;0.427;0.428;0.43;0.431;0.433;0.434;0.436;0.437;0.439;0.44;0.442;0.443;1" values="-11.9,-10.7;-11.9,-10.7;-11.9,-10.75;-11.9,-10.75;-11.95,-10.65;-11.95,-10.65;-11.95,-10.7;-11.95,-10.7;-11.85,-10.75;-11.85,-10.75;-11.85,-10.8;-11.85,-10.8;-11.9,-10.7;-11.9,-10.7;-11.85,-10.7;-11.85,-10.7;-11.9,-10.75;-11.9,-10.75;-11.8,-10.7;-11.8,-10.7;-11.9,-10.65;-11.9,-10.65;-11.85,-10.65;-11.85,-10.65;-11.9,-10.7;-11.9,-10.7;0;0" calcMode="discrete"/><animateTransform attributeName="transform" additive="sum" type="translate" repeatCount="indefinite" dur="13.083s" keyTimes="0;0.443;1" values="0;-11.9,-10.7;-11.9,-10.7" calcMode="discrete"/></use><animate attributeName="display" repeatCount="indefinite" dur="13.083s" keyTimes="0;0.398;0.446;1" values="none;inline;none;none"/></g><g style="display:none;"><use xlink:href="#flecha_gris" transform="matrix(1 0 0 1 275.2 275.65)" filter="url(#filter7)"><animateTransform attributeName="transform" additive="replace" type="translate" dur="13.083s" keyTimes="0;1" values="0,0;0,0" fill="freeze"/><animateTransform attributeName="transform" additive="sum" type="translate" repeatCount="indefinite" dur="13.083s" keyTimes="0;0.506;0.507;0.509;0.51;0.513;0.514;0.516;0.517;0.519;0.52;0.522;0.523;0.525;0.526;0.529;0.53;0.532;0.533;0.535;0.536;0.538;0.539;0.541;0.542;0.545;0.546;0.547;0.548;0.549;1" values="275.2,275.65;275.2,275.65;293.1,275.75;293.1,275.75;311.05,275.8;311.05,275.8;328.95,275.9;328.95,275.9;346.85,276;346.85,276;364.8,276.1;364.8,276.1;382.7,276.15;382.7,276.15;400.65,276.25;400.65,276.25;418.55,276.35;418.55,276.35;436.45,276.4;436.45,276.4;454.4,276.5;454.4,276.5;472.3,276.6;472.3,276.6;490.2,276.7;490.2,276.7;508.15,276.75;508.15,276.75;526.05,276.85;0;0" calcMode="discrete"/><animateTransform attributeName="transform" additive="sum" type="translate" repeatCount="indefinite" dur="13.083s" keyTimes="0;0.548;1" values="0;526.05,276.85;526.05,276.85" calcMode="discrete"/></use><animate attributeName="display" repeatCount="indefinite" dur="13.083s" keyTimes="0;0.503;0.551;1" values="none;inline;none;none"/></g><g style="display:none;"><use xlink:href="#flecha_gris" transform="matrix(1 0 0 1 277.35 350.25)" filter="url(#filter6)"><animateTransform attributeName="transform" additive="replace" type="translate" dur="13.083s" keyTimes="0;1" values="0,0;0,0" fill="freeze"/><animateTransform attributeName="transform" additive="sum" type="translate" repeatCount="indefinite" dur="13.083s" keyTimes="0;0.621;0.622;0.624;0.625;0.627;0.628;0.631;0.632;0.634;0.635;0.637;0.638;0.64;0.641;0.643;0.644;0.646;0.647;0.65;0.651;0.653;0.654;0.656;0.657;0.659;0.66;0.661;0.662;0.663;1" values="289.25,360.95;289.25,360.95;307.682,362.137;307.682,362.137;326.06,362.87;326.06,362.87;344.431,363.201;344.431,363.201;362.946,362.979;362.946,362.979;381.424,362.299;381.424,362.299;399.82,360.783;399.82,360.783;418.371,358.387;418.371,358.387;437.362,355.143;437.362,355.143;455.984,350.523;455.984,350.523;474.294,344.558;474.294,344.558;492.012,336.859;492.012,336.859;508.901,327.087;508.901,327.087;524.147,315.066;524.147,315.066;537.309,300.631;0;0" calcMode="discrete"/><animateTransform attributeName="transform" additive="sum" type="translate" repeatCount="indefinite" dur="13.083s" keyTimes="0;0.662;1" values="0;537.309,300.631;537.309,300.631" calcMode="discrete"/><animateTransform attributeName="transform" additive="sum" type="rotate" repeatCount="indefinite" dur="13.083s" keyTimes="0;0.621;0.622;0.624;0.625;0.627;0.628;0.631;0.632;0.634;0.635;0.637;0.638;0.64;0.641;0.643;0.644;0.646;0.647;0.65;0.651;0.653;0.654;0.656;0.657;0.659;0.66;0.661;0.662;0.663;1" values="0,0,0;0,0,0;-1.011,0,0;-1.011,0,0;-2.021,0,0;-2.021,0,0;-3.033,0,0;-3.033,0,0;-4.045,0,0;-4.045,0,0;-5.057,0,0;-5.057,0,0;-6.256,0,0;-6.256,0,0;-7.308,0,0;-7.308,0,0;-12.556,0,0;-12.556,0,0;-18.038,0,0;-18.038,0,0;-23.333,0,0;-23.333,0,0;-28.818,0,0;-28.818,0,0;-34.117,0,0;-34.117,0,0;-39.604,0,0;-39.604,0,0;-45,0,0;0;0" calcMode="discrete"/><animateTransform attributeName="transform" additive="sum" type="rotate" repeatCount="indefinite" dur="13.083s" keyTimes="0;0.662;1" values="0;-45,0,0;-45,0,0" calcMode="discrete"/><animateTransform attributeName="transform" additive="sum" type="skewX" repeatCount="indefinite" dur="13.083s" keyTimes="0;0.64;0.641;0.646;0.647;0.653;0.654;0.66;0.661;0.662;1" values="0;0;0.001;0.001;0;0;0.001;0.001;0;0;0" calcMode="discrete"/><animateTransform attributeName="transform" additive="sum" type="scale" repeatCount="indefinite" dur="13.083s" keyTimes="0;0.624;0.625;0.634;0.635;0.643;0.644;0.656;0.657;0.659;0.66;0.661;0.662;0.663;1" values="1,1;1,1;0.999,0.999;0.999,0.999;0.998,0.998;0.998,0.998;0.997,0.997;0.997,0.997;0.997,0.996;0.997,0.996;0.997,0.997;0.997,0.997;1,1;1;1" calcMode="discrete"/><animateTransform attributeName="transform" additive="sum" type="translate" repeatCount="indefinite" dur="13.083s" keyTimes="0;0.621;0.622;0.624;0.625;0.627;0.628;0.631;0.632;0.634;0.635;0.637;0.638;0.64;0.641;0.643;0.644;0.646;0.647;0.65;0.651;0.653;0.654;0.656;0.657;0.659;0.66;0.661;0.662;0.663;1" values="-11.9,-10.7;-11.9,-10.7;-11.85,-10.7;-11.85,-10.7;-11.9,-10.7;-11.9,-10.7;-11.9,-10.65;-11.9,-10.65;-11.9,-10.6;-11.9,-10.6;-11.95,-10.75;-11.95,-10.75;-11.8,-10.7;-11.8,-10.7;-11.95,-10.6;-11.95,-10.6;-11.9,-10.75;-11.9,-10.75;-11.9,-10.7;-11.9,-10.7;-11.9,-10.65;-11.9,-10.65;-11.85,-10.65;-11.85,-10.65;-12,-10.65;-12,-10.65;-12,-10.6;-12,-10.6;-11.9,-10.6;0;0" calcMode="discrete"/><animateTransform attributeName="transform" additive="sum" type="translate" repeatCount="indefinite" dur="13.083s" keyTimes="0;0.662;1" values="0;-11.9,-10.6;-11.9,-10.6" calcMode="discrete"/></use><animate attributeName="display" repeatCount="indefinite" dur="13.083s" keyTimes="0;0.618;0.666;1" values="none;inline;none;none"/></g><g style="display:none;"><use xlink:href="#flecha_blanca" transform="matrix(1.154 0 0 1.154 524.1 275.2)"/><animate attributeName="display" repeatCount="indefinite" dur="13.083s" keyTimes="0;0.449;0.459;0.554;0.564;0.669;0.678;1" values="none;inline;none;inline;none;inline;none;none"/></g><g style="display:none;"><g id="flecha_negra" transform="matrix(1.154 0 0 1.154 524.1 275.2)"><animateTransform attributeName="transform" additive="replace" type="translate" repeatCount="indefinite" dur="13.083s" keyTimes="0;0.449;0.45;0.551;0.552;0.554;0.555;0.666;0.667;0.669;0.67;1" values="537.835,287.55;537.835,287.55;537.85,287.55;537.85,287.55;537.835,287.55;537.835,287.55;537.85,287.55;537.85,287.55;537.835,287.55;537.835,287.55;537.85,287.55;537.85,287.55" calcMode="discrete"/><animateTransform attributeName="transform" additive="sum" type="scale" repeatCount="indefinite" dur="13.083s" keyTimes="0;0.449;0.45;0.551;0.552;0.554;0.555;0.666;0.667;0.669;0.67;1" values="1.154,1.154;1.154,1.154;1,1;1,1;1.154,1.154;1.154,1.154;1,1;1,1;1.154,1.154;1.154,1.154;1,1;1,1" calcMode="discrete"/><animateTransform attributeName="transform" additive="sum" type="translate" repeatCount="indefinite" dur="13.083s" keyTimes="0;1" values="-11.9,-10.7;-11.9,-10.7" calcMode="discrete"/><g><g id="flecha negra_0.0.0"><path fill="none" stroke="#000" stroke-width="7" stroke-linecap="round" stroke-linejoin="round" d="M0.051,10.776L22.726,10.776"/></g><g id="flecha negra_0.0.1"><path fill="none" stroke="#000" stroke-width="7" stroke-linecap="round" stroke-linejoin="round" d="M23.8,10.725L12.8,21.45M23.8,10.725L12.8,0"/></g></g></g><animate attributeName="display" repeatCount="indefinite" dur="13.083s" keyTimes="0;0.446;1" values="none;inline;inline"/></g><g style="display:none;"><path fill="none" stroke="#221F1F" stroke-width="7" stroke-linecap="round" stroke-linejoin="round" d="M615.818,178.644L615.818,178.96"/><path fill="none" stroke="#221F1F" stroke-width="7" stroke-linecap="round" stroke-linejoin="round" d="M636.913,185.066L636.54,185.407"/><path fill="none" stroke="#221F1F" stroke-width="7" stroke-linecap="round" stroke-linejoin="round" d="M594.689,185.076L595.15,185.496"/><animate attributeName="display" repeatCount="indefinite" dur="13.083s" keyTimes="0;0.729;0.732;1" values="none;inline;none;none"/></g><g style="display:none;"><path fill="none" stroke="#221F1F" stroke-width="7" stroke-linecap="round" stroke-linejoin="round" d="M615.818,179.443L615.818,182.973"/><path fill="none" stroke="#221F1F" stroke-width="7" stroke-linecap="round" stroke-linejoin="round" d="M636.235,185.641L633.27,188.347"/><path fill="none" stroke="#221F1F" stroke-width="7" stroke-linecap="round" stroke-linejoin="round" d="M595.269,185.615L598.043,188.146"/><animate attributeName="display" repeatCount="indefinite" dur="13.083s" keyTimes="0;0.726;0.729;1" values="none;inline;none;none"/></g><g style="display:none;"><path fill="none" stroke="#221F1F" stroke-width="7" stroke-linecap="round" stroke-linejoin="round" d="M615.818,182.704L615.818,189.269"/><path fill="none" stroke="#221F1F" stroke-width="7" stroke-linecap="round" stroke-linejoin="round" d="M633.026,188.622L627.939,193.264"/><path fill="none" stroke="#221F1F" stroke-width="7" stroke-linecap="round" stroke-linejoin="round" d="M598.547,188.652L603.634,193.293"/><animate attributeName="display" repeatCount="indefinite" dur="13.083s" keyTimes="0;0.72;0.726;1" values="none;inline;none;none"/></g><g style="display:none;"><use xlink:href="#parche2" transform="matrix(1 0 0 14.347 190.55 47.9)"><animateTransform attributeName="transform" additive="replace" type="translate" repeatCount="indefinite" dur="13.083s" keyTimes="0;0.898;0.901;0.927;0.93;1" values="431.25,230.109;431.25,230.109;431.25,229.964;431.25,229.964;431.25,230.109;431.25,230.109" calcMode="discrete"/><animateTransform attributeName="transform" additive="sum" type="scale" repeatCount="indefinite" dur="13.083s" keyTimes="0;0.898;0.901;0.927;0.93;1" values="1,14.347;1,14.347;1,14.348;1,14.348;1,14.347;1,14.347" calcMode="discrete"/><animateTransform attributeName="transform" additive="sum" type="translate" repeatCount="indefinite" dur="13.083s" keyTimes="0;1" values="-240.7,-12.7;-240.7,-12.7" calcMode="discrete"/><animate attributeName="opacity" repeatCount="indefinite" dur="13.083s" keyTimes="0;0.898;0.901;0.904;0.908;0.911;0.914;0.917;0.92;0.924;0.927;0.93;1" values="0.04;0.04;0.14;0.23;0.33;0.42;0.52;0.62;0.71;0.81;0.9;1;1" calcMode="discrete"/></use><animate attributeName="display" repeatCount="indefinite" dur="13.083s" keyTimes="0;0.898;1" values="none;inline;inline"/></g><g style="display:none;"><use xlink:href="#parche2" transform="matrix(1 0 0 14.347 190.55 47.9)"><animateTransform attributeName="transform" additive="replace" type="translate" repeatCount="indefinite" dur="13.083s" keyTimes="0;0.131;0.134;0.159;0.162;1" values="431.25,230.109;431.25,230.109;431.25,229.964;431.25,229.964;431.25,230.109;431.25,230.109" calcMode="discrete"/><animateTransform attributeName="transform" additive="sum" type="scale" repeatCount="indefinite" dur="13.083s" keyTimes="0;0.131;0.134;0.159;0.162;1" values="1,14.347;1,14.347;1,14.348;1,14.348;1,14.347;1,14.347" calcMode="discrete"/><animateTransform attributeName="transform" additive="sum" type="translate" repeatCount="indefinite" dur="13.083s" keyTimes="0;1" values="-240.7,-12.7;-240.7,-12.7" calcMode="discrete"/><animate attributeName="opacity" repeatCount="indefinite" dur="13.083s" keyTimes="0;0.131;0.134;0.137;0.14;0.143;0.147;0.15;0.153;0.156;0.159;0.162;1" values="0.04;0.04;0.14;0.23;0.33;0.42;0.52;0.62;0.71;0.81;0.9;1;1" calcMode="discrete"/></use><animate attributeName="display" repeatCount="indefinite" dur="13.083s" keyTimes="0;0.131;0.182;1" values="none;inline;none;none"/></g></g></svg>