<?xml version="1.0" encoding="utf-8"?><svg xmlns:xlink="http://www.w3.org/1999/xlink" id="tutorial3_4" image-rendering="auto" baseProfile="basic" version="1.1" x="0px" y="0px" width="800" height="450" xmlns="http://www.w3.org/2000/svg"><defs><symbol id="mano_abierta" overflow="visible"><g id="mano abierta_0.0"><path fill="#F59120" d="M123.85,18.25Q123.8,15.3 122.7,12.75 121.6,10.2 119.7,8.25 117.75,6.3 115.2,5.25 112.65,4.15 109.75,4.15 108.8,4.15 107.8,4.25 106.85,4.4 106,4.65 105.1,4.85 104.25,5.25 103.4,5.6 102.6,6.05 101.05,6.95 99.8,8.25 98.5,9.5 97.55,11.1 97.1,11.9 96.75,12.75 96.4,13.55 96.15,14.5 95.9,15.35 95.8,16.3 95.65,17.25 95.65,18.25L95.65,37.85Q94.8,37.8 93.95,37.8L93.95,14.1Q93.9,11.15 92.8,8.6 91.7,6.05 89.8,4.1 87.85,2.15 85.3,1.1 82.75,0 79.85,0 78.9,0 77.9,0.1 76.95,0.25 76.1,0.5 75.2,0.7 74.35,1.1 73.5,1.45 72.7,1.9 71.15,2.85 69.9,4.1 68.6,5.4 67.65,6.95 67.2,7.75 66.85,8.6 66.5,9.4 66.25,10.35 66,11.2 65.9,12.2 65.75,13.1 65.75,14.1L65.75,37.8 64.1,37.8 64.1,14.1Q64.1,11.15 63,8.6 61.95,6.05 60,4.1 58.05,2.15 55.5,1.1 52.95,0 50.05,0 49.1,0 48.1,0.1 47.15,0.25 46.3,0.5 45.4,0.7 44.55,1.1 43.7,1.45 42.9,1.9 41.35,2.85 40.1,4.1 38.8,5.4 37.85,6.95 37.4,7.75 37.05,8.6 36.7,9.4 36.45,10.35 36.2,11.2 36.1,12.2 35.95,13.1 35.95,14.1L35.95,73.45 24.5,62.05Q24,61.5 23.4,61.05 22.85,60.6 22.3,60.25 21.7,59.85 21.1,59.5 20.45,59.15 19.85,58.9 19.2,58.65 18.55,58.45 17.85,58.3 17.25,58.15 16.55,58 15.9,57.95 15.2,57.9 14.55,57.9 13.85,57.9 13.2,57.95 12.5,58 11.85,58.15 11.2,58.3 10.5,58.45 9.85,58.65 9.25,58.9 8.6,59.15 8,59.5 7.35,59.85 6.8,60.25 6.2,60.6 5.6,61.05 5.05,61.5 4.55,62.05 3.2,63.4 2.25,65.05 1.8,65.8 1.5,66.65 1.15,67.5 0.9,68.4 0.65,69.3 0.55,70.15 0.4,71.05 0.45,72 0.4,72.9 0.55,73.8 0.65,74.65 0.9,75.55 1.15,76.45 1.5,77.3 1.8,78.15 2.25,78.95 3.2,80.55 4.55,81.95L47.45,124.85Q47.9,125.25 48.4,125.7 48.85,126.1 49.4,126.45 49.95,126.85 50.45,127.15 51,127.45 51.55,127.7 52.1,127.95 52.7,128.15 53.3,128.35 53.9,128.5L123.8,128.5 123.8,78.4 123.85,78.35 123.85,18.25"/></g>
</symbol><symbol id="mano_cerrada" overflow="visible"><g id="mano cerrada_0.0"><path fill="#F59120" d="M123.45,46.8Q123.45,43.5 122.25,40.65 121,37.85 118.9,35.7 116.75,33.55 113.9,32.35 111.05,31.15 107.8,31.15 105.65,31.15 103.65,31.65 101.65,32.2 99.9,33.25 98.15,34.25 96.75,35.7 95.3,37.1 94.35,38.85 94.05,36.75 93.25,34.9 92.05,32.05 89.9,29.9 87.75,27.75 84.95,26.55 82.05,25.35 78.8,25.35 76.65,25.35 74.65,25.85 72.65,26.45 70.95,27.45 69.15,28.5 67.75,29.9 66.3,31.3 65.3,33.05 64.35,34.65 63.8,36.45L63.8,30.8Q63.8,27.9 62.75,25.35 61.65,22.8 59.7,20.85 57.8,18.9 55.25,17.85 52.7,16.75 49.75,16.75 48.75,16.75 47.85,16.85 46.9,17 46,17.25 45.1,17.45 44.25,17.85 43.4,18.2 42.65,18.65 41.05,19.55 39.8,20.85 38.5,22.1 37.6,23.7 37.15,24.5 36.8,25.35 36.4,26.15 36.2,27.05 35.95,27.95 35.8,28.9 35.7,29.8 35.7,30.8L35.55,79.05Q33.15,81.5 31.35,84.55 29.4,87.8 28.4,91.5 27.35,95.2 27.35,99.3 27.35,103.35 28.4,107.1 29.4,110.8 31.35,114.05 33.3,117.3 35.95,120 38.6,122.65 41.85,124.55 45.1,126.5 48.85,127.55 50.65,128.05 52.55,128.3 53.05,128.45 53.55,128.6L57.9,128.6Q58.05,128.55 58.25,128.6L69.95,128.65 69.95,128.6 123.45,128.6 123.45,55.55Q123.45,54.7 123.45,53.95L123.45,46.8"/></g>
</symbol><symbol id="repetir" overflow="visible"><g id="repetir_0.0"><g><path fill="#9BCD72" stroke="#FFF" stroke-linecap="round" stroke-linejoin="round" d="M93.35,6.725L93.35,0 25.95,0 20.35,3.75Q20.15,3.85 19.95,3.95 19.7,4 19.45,4 19.2,4 19,3.95 18.75,3.85 18.6,3.75L12.95,0 9.55,0Q8.85,-0.05 8.25,0.05 7.6,0.15 7,0.3 6.35,0.5 5.8,0.75 5.25,0.95 4.7,1.3 4.15,1.6 3.7,1.95 3.2,2.35 2.8,2.8 2.35,3.2 1.95,3.7 1.6,4.15 1.3,4.7 0.95,5.25 0.75,5.8 0.5,6.35 0.3,7 0.15,7.6 0.05,8.25 -0.05,8.85 0,9.55L0.1,98.2Q0.05,98.65 0.15,99.5L0.4,100.75 0.85,101.95Q1.2,102.8 1.4,103.05L2.05,104.05 3.8,105.8 5.9,107.05 7.1,107.45 9.65,107.8 14.85,107.8 19.45,111.05Q19.8,111.3 20.25,111.45 20.6,111.55 20.95,111.55L21.3,111.55Q21.6,111.55 21.9,111.45 22.15,111.35 22.45,111.25L22.5,111.2 27.35,107.8 93.4,107.8 93.45,107.75 93.45,96.95 93.4,96.9 49.4,96.9 45,100 44,100.5Q43.5,100.65 42.85,100.65L41.75,100.5 40.75,100 36.35,96.9 30.3,96.9Q28,96.9 26.05,96.1 23.95,95.25 22.4,93.85 20.85,92.5 19.8,90.5 18.8,88.6 18.8,86.45L18.85,81.3Q18.95,80.6 19.15,79.95 19.35,79.3 19.7,78.65 20,78.05 20.4,77.45 20.8,76.85 21.3,76.35 21.75,75.8 22.3,75.35 22.8,74.85 23.4,74.45 24,74 24.65,73.7 25.3,73.35 25.95,73.1 26.6,72.8 27.35,72.65 28.05,72.45 28.75,72.35 29.45,72.25 30.2,72.25L36.05,72.25Q36.2,72.25 36.35,72.3 36.5,72.3 36.6,72.4L41.75,76Q41.95,76.15 42.25,76.25 42.5,76.3 42.75,76.3 43.05,76.3 43.3,76.25 43.55,76.15 43.8,76L48.95,72.4Q49.05,72.3 49.2,72.3 49.3,72.25 49.5,72.25L93.3,72.25 93.35,72.2 93.35,17.175 88.4,12.75Q88.25,12.6 88.15,12.4 88.05,12.2 88.1,11.95 88.05,11.7 88.15,11.5 88.25,11.25 88.4,11.1L93.35,6.725"/><path fill="none" stroke="#221F1F" stroke-width="7" stroke-linecap="round" stroke-linejoin="round" d="M31.45,52.225L31.45,37.75M31.45,52.225Q31.477,53.472 32.3,54.3 33.128,55.136 34.375,55.175L64.875,55.175"/><path fill="none" stroke="#221F1F" stroke-width="7" stroke-linecap="round" stroke-linejoin="round" d="M67.775,27.725L67.775,42.225M67.775,27.725Q67.761,27.122 67.525,26.6 67.3,26.061 66.9,25.65 66.502,25.25 65.975,25.025 65.44,24.801 64.825,24.8L34.35,24.8"/><path fill="#221F1F" d="M57.05,43.825L56.9,43.825Q56.513,43.822 56.15,44 55.861,44.144 55.65,44.375 55.44,44.608 55.325,44.9 55.219,45.196 55.225,45.525L55.225,65.2Q55.219,65.529 55.325,65.825 55.44,66.117 55.65,66.35 55.86,66.594 56.15,66.75 56.332,66.835 56.525,66.875 56.711,66.922 56.9,66.925 57.18,66.931 57.45,66.85 57.704,66.755 57.925,66.575L70.775,56.75Q70.994,56.589 71.15,56.375 71.298,56.156 71.375,55.9 71.451,55.647 71.45,55.375 71.449,54.961 71.275,54.6 71.096,54.245 70.775,54L57.925,44.15Q57.524,43.862 57.05,43.825"/><path fill="#221F1F" d="M42.425,13.825L42.25,13.825Q42.022,13.818 41.8,13.875 41.505,13.957 41.25,14.15L28.4,24Q28.181,24.161 28.025,24.375 27.877,24.595 27.8,24.85 27.723,25.103 27.725,25.375 27.726,25.789 27.9,26.15 28.077,26.505 28.4,26.75L41.25,36.575Q41.471,36.755 41.725,36.85 41.981,36.931 42.25,36.925 42.451,36.922 42.65,36.875 42.842,36.835 43.025,36.75 43.314,36.594 43.525,36.35 43.723,36.117 43.825,35.825 43.944,35.529 43.95,35.2L43.95,15.525Q43.944,15.196 43.825,14.9 43.723,14.608 43.525,14.375 43.315,14.144 43.025,14 42.736,13.854 42.425,13.825"/></g></g>
</symbol></defs><g id="Scene_1" overflow="visible"><path fill="none" stroke="#D5D7DB" stroke-width="10" stroke-linecap="round" stroke-linejoin="round" d="M135.851,26.751L135.851,365.476"/><g style="display:none;"><g><path fill="#BB2B82" d="M690.937,304.394Q690.937,287.217 678.804,275.083 666.67,262.95 649.494,262.95 632.317,262.95 620.183,275.083 608.05,287.217 608.05,304.394 608.05,321.57 620.183,333.704 632.317,345.837 649.494,345.837 666.67,345.837 678.804,333.704 690.937,321.57 690.937,304.394"/><g><path fill="#FFF" d="M669.271,304.367L641.35,320.484 641.35,320.557 641.387,320.557 669.308,304.403 669.308,304.33 641.387,288.213 641.313,288.25 641.35,289.968 641.35,288.25 669.271,304.367"/><path fill="#FFF" d="M641.35,320.484L669.271,304.367 641.35,288.25 641.35,289.968Q641.348,290.233 641.35,290.516 641.348,290.904 641.35,291.283 641.342,305.878 641.35,320.484"/><path fill="none" stroke="#FFF" stroke-width="5" stroke-linecap="round" stroke-linejoin="round" d="M641.35,290.516Q641.348,290.233 641.35,289.968M641.35,291.283Q641.348,290.904 641.35,290.516M641.35,320.484Q641.342,305.878 641.35,291.283"/><path fill="none" stroke="#FFF" stroke-width="5" stroke-linecap="round" stroke-linejoin="round" d="M669.271,304.367L641.35,320.484M641.35,289.968L641.35,288.25 669.271,304.367"/></g></g><animate attributeName="display" repeatCount="indefinite" dur="18.75s" keyTimes="0;0.844;0.847;1" values="none;inline;none;none"/></g><g style="display:none;"><g><path fill="#BB2B82" d="M690.937,304.394Q690.937,287.217 678.804,275.083 666.67,262.95 649.494,262.95 632.317,262.95 620.183,275.083 608.05,287.217 608.05,304.394 608.05,321.57 620.183,333.704 632.317,345.837 649.494,345.837 666.67,345.837 678.804,333.704 690.937,321.57 690.937,304.394"/><g><path fill="#FFF" d="M669.308,304.403L669.308,304.33 641.387,288.213 641.313,288.25 641.35,289.968 641.35,288.25 669.271,304.367 641.35,320.484 641.35,320.557 641.387,320.557 669.308,304.403"/><path fill="#FFF" d="M641.35,320.484L669.271,304.367 641.35,288.25 641.35,289.968Q641.348,290.233 641.35,290.516 641.348,290.904 641.35,291.283 641.342,305.878 641.35,320.484"/><path fill="none" stroke="#FFF" stroke-width="5" stroke-linecap="round" stroke-linejoin="round" d="M641.35,290.516Q641.348,290.233 641.35,289.968M641.35,291.283Q641.348,290.904 641.35,290.516M641.35,320.484Q641.342,305.878 641.35,291.283"/><path fill="none" stroke="#FFF" stroke-width="5" stroke-linecap="round" stroke-linejoin="round" d="M641.35,289.968L641.35,288.25 669.271,304.367 641.35,320.484"/></g></g><animate attributeName="display" repeatCount="indefinite" dur="18.75s" keyTimes="0;0.813;0.844;1" values="none;inline;none;none"/></g><g style="display:none;"><g><path fill="#EE5D80" d="M690.937,304.394Q690.937,287.217 678.804,275.083 666.67,262.95 649.494,262.95 632.317,262.95 620.183,275.083 608.05,287.217 608.05,304.394 608.05,321.57 620.183,333.704 632.317,345.837 649.494,345.837 666.67,345.837 678.804,333.704 690.937,321.57 690.937,304.394"/><g><path fill="#FFF" d="M669.308,304.403L669.308,304.33 641.387,288.213 641.313,288.25 641.35,289.968 641.35,288.25 669.271,304.367 641.35,320.484 641.35,320.557 641.387,320.557 669.308,304.403"/><path fill="#FFF" d="M641.35,320.484L669.271,304.367 641.35,288.25 641.35,289.968Q641.348,290.233 641.35,290.516 641.348,290.904 641.35,291.283 641.342,305.878 641.35,320.484"/><path fill="none" stroke="#FFF" stroke-width="5" stroke-linecap="round" stroke-linejoin="round" d="M641.35,290.516Q641.348,290.233 641.35,289.968M641.35,291.283Q641.348,290.904 641.35,290.516M641.35,320.484Q641.342,305.878 641.35,291.283"/><path fill="none" stroke="#FFF" stroke-width="5" stroke-linecap="round" stroke-linejoin="round" d="M641.35,289.968L641.35,288.25 669.271,304.367 641.35,320.484"/></g></g><animate attributeName="display" repeatCount="indefinite" dur="18.75s" keyTimes="0;0.811;0.813;1" values="none;inline;none;none"/></g><g><g><path fill="#EE5D80" d="M687.147,304.373Q687.147,288.718 676.088,277.659 665.029,266.6 649.373,266.6 633.718,266.6 622.659,277.659 611.6,288.718 611.6,304.373 611.6,320.029 622.659,331.088 633.718,342.147 649.373,342.147 665.029,342.147 676.088,331.088 687.147,320.029 687.147,304.373"/><g><path fill="#FFF" d="M667.382,304.423L667.382,304.356 641.933,289.667 641.867,289.7 641.9,291.266 641.9,289.7 667.349,304.39 641.9,319.079 641.9,319.146 641.933,319.146 667.382,304.423"/><path fill="#FFF" d="M641.9,319.079L667.349,304.39 641.9,289.7 641.9,291.266Q641.898,291.507 641.9,291.765 641.898,292.119 641.9,292.465 641.892,305.767 641.9,319.079"/><path fill="none" stroke="#FFF" stroke-width="5" stroke-linecap="round" stroke-linejoin="round" d="M641.9,291.765Q641.898,291.507 641.9,291.266M641.9,292.465Q641.898,292.119 641.9,291.765M641.9,319.079Q641.892,305.767 641.9,292.465"/><path fill="none" stroke="#FFF" stroke-width="5" stroke-linecap="round" stroke-linejoin="round" d="M641.9,291.266L641.9,289.7 667.349,304.39 641.9,319.079"/></g></g><animate attributeName="display" repeatCount="indefinite" dur="18.75s" keyTimes="0;0.811;0.847;1" values="inline;none;inline;inline"/></g><g style="display:none;"><path fill="none" stroke="#999" stroke-width="10" stroke-linecap="round" stroke-linejoin="round" d="M649.85,203.781L649.85,204.736"/><path fill="none" stroke="#999" stroke-width="10" stroke-linecap="round" stroke-linejoin="round" d="M708.132,223.229L707.103,224.258"/><path fill="none" stroke="#999" stroke-width="10" stroke-linecap="round" stroke-linejoin="round" d="M591.632,223.222L592.903,224.493"/><animate attributeName="display" repeatCount="indefinite" dur="18.75s" keyTimes="0;0.818;0.82;1" values="none;inline;none;none"/></g><g style="display:none;"><path fill="none" stroke="#999" stroke-width="10" stroke-linecap="round" stroke-linejoin="round" d="M649.85,206.233L649.85,216.906"/><path fill="none" stroke="#999" stroke-width="10" stroke-linecap="round" stroke-linejoin="round" d="M706.332,225.029L698.15,233.211"/><path fill="none" stroke="#999" stroke-width="10" stroke-linecap="round" stroke-linejoin="round" d="M593.229,224.819L600.883,232.473"/><animate attributeName="display" repeatCount="indefinite" dur="18.75s" keyTimes="0;0.816;0.818;1" values="none;inline;none;none"/></g><g style="display:none;"><path fill="none" stroke="#999" stroke-width="10" stroke-linecap="round" stroke-linejoin="round" d="M649.85,216.05L649.85,235.9"/><path fill="none" stroke="#999" stroke-width="10" stroke-linecap="round" stroke-linejoin="round" d="M697.385,233.976L683.349,248.012"/><path fill="none" stroke="#999" stroke-width="10" stroke-linecap="round" stroke-linejoin="round" d="M602.325,233.915L616.361,247.951"/><animate attributeName="display" repeatCount="indefinite" dur="18.75s" keyTimes="0;0.811;0.816;1" values="none;inline;none;none"/></g><g style="display:none;"><path fill="#EE5D80" d="M433.7,76.1L358.45,76.1 358.45,139.25 433.7,139.25 433.7,76.1"/><path fill="#EE5D80" d="M358.05,70.3Q357.4,70.4 356.8,70.55 356.2,70.75 355.6,71 355.05,71.2 354.5,71.55 353.95,71.85 353.5,72.2 353,72.6 352.6,73.05 352.15,73.45 351.75,73.95 351.4,74.4 351.1,74.95 350.75,75.5 350.55,76.05 350.3,76.65 350.1,77.25 349.95,77.85 349.85,78.5 349.75,79.1 349.8,79.8L350.95,310.9Q350.9,311.35 351,312.2L351.25,313.45 351.7,314.65Q352.05,315.5 352.25,315.75L352.9,316.75Q353.25,317.25 353.75,317.65 354.2,318.15 354.65,318.5L356.75,319.7 357.95,320.15 359.2,320.4 443.4,320.45 443.4,309.65 443.35,309.6 399.3,309.6 394.9,312.65Q394.5,313 393.9,313.15L392.75,313.35 391.65,313.15Q391.05,313 390.65,312.65L386.2,309.6 380.2,309.6Q377.85,309.5 376.1,308.75 374.15,307.9 372.75,306.5 371.35,305.1 370.5,303.15 369.7,301.35 369.7,299.1L368.55,153.1Q368.55,152.35 368.65,151.65 368.67,151.371 368.725,151.1 368.78,150.691 368.9,150.3 369.1,149.6 369.35,149 369.6,148.35 370,147.8 370.3,147.2 370.75,146.7 371.15,146.15 371.6,145.65 372.1,145.2 372.65,144.8 373.15,144.35 373.75,144 374.3,143.65 374.95,143.4 375.6,143.15 376.25,142.95 376.9,142.75 377.6,142.7 378.3,142.6 379.05,142.6L384.9,142.6Q385.05,142.6 385.2,142.65 385.35,142.65 385.45,142.75L390.6,146.35Q390.8,146.5 391.1,146.6 391.35,146.65 391.65,146.65 391.9,146.65 392.15,146.6 392.4,146.5 392.65,146.35L397.8,142.75Q397.9,142.65 398.05,142.65 398.15,142.6 398.35,142.6L442.2,142.6 442.25,142.55 442.25,70.25 359.35,70.25Q358.65,70.2 358.05,70.3"/><g><path fill="#EE5D80" d="M382,118.875L382.025,118.875 404.175,106.075 404.175,106.025 382.025,93.225 381.975,93.25 381.975,118.85 382,118.875"/><path fill="#EE5D80" stroke-width="5" stroke-linecap="round" stroke-linejoin="miter" stroke-miterlimit="10" d="M404.15,106.05L382,93.25 382,118.85 404.15,106.05"/><path fill="none" stroke="#EE5D80" stroke-width="5" stroke-linecap="round" stroke-linejoin="miter" stroke-miterlimit="10" d="M404.15,106.05L382,93.25 382,118.85 404.15,106.05"/></g><g><path fill="#221F1F" d="M391.6,120.525L391.625,120.525 413.775,107.725 413.775,107.675 391.625,94.875 391.575,94.9 391.575,120.5 391.6,120.525"/><path fill="#221F1F" stroke-width="5" stroke-linecap="round" stroke-linejoin="round" d="M413.75,107.7L391.6,94.9 391.6,120.5 413.75,107.7"/><path fill="none" stroke="#221F1F" stroke-width="5" stroke-linecap="round" stroke-linejoin="round" d="M413.75,107.7L391.6,94.9 391.6,120.5 413.75,107.7"/></g><animate attributeName="display" repeatCount="indefinite" dur="18.75s" keyTimes="0;0.442;1" values="none;inline;inline"/></g><g style="display:none;"><path fill="#EE5D80" d="M358.05,70.3Q357.4,70.4 356.8,70.55 356.2,70.75 355.6,71 355.05,71.2 354.5,71.55 353.95,71.85 353.5,72.2 353,72.6 352.6,73.05 352.15,73.45 351.75,73.95 351.4,74.4 351.1,74.95 350.75,75.5 350.55,76.05 350.3,76.65 350.1,77.25 349.95,77.85 349.85,78.5 349.75,79.1 349.8,79.8L350.45,255.1Q350.4,255.55 350.5,256.4L350.75,257.65 351.2,258.85Q351.55,259.7 351.75,259.95L352.4,260.95Q352.75,261.45 353.25,261.85 353.7,262.35 354.15,262.7L356.25,263.9 357.45,264.35 358.7,264.6 442.9,264.65 442.9,253.85 442.85,253.8 398.8,253.8 394.4,256.85Q394,257.2 393.4,257.35L392.25,257.55 391.15,257.35Q390.55,257.2 390.15,256.85L385.7,253.8 379.7,253.8Q377.35,253.7 375.6,252.95 373.65,252.1 372.25,250.7 370.85,249.3 370,247.35 369.2,245.55 369.2,243.3L368.55,153.1Q368.55,152.35 368.65,151.65 368.67,151.371 368.725,151.1 368.78,150.691 368.9,150.3 369.1,149.6 369.35,149 369.6,148.35 370,147.8 370.3,147.2 370.75,146.7 371.15,146.15 371.6,145.65 372.1,145.2 372.65,144.8 373.15,144.35 373.75,144 374.3,143.65 374.95,143.4 375.6,143.15 376.25,142.95 376.9,142.75 377.6,142.7 378.3,142.6 379.05,142.6L384.9,142.6Q385.05,142.6 385.2,142.65 385.35,142.65 385.45,142.75L390.6,146.35Q390.8,146.5 391.1,146.6 391.35,146.65 391.65,146.65 391.9,146.65 392.15,146.6 392.4,146.5 392.65,146.35L397.8,142.75Q397.9,142.65 398.05,142.65 398.15,142.6 398.35,142.6L442.2,142.6 442.25,142.55 442.25,70.25 359.35,70.25Q358.65,70.2 358.05,70.3"/><path fill="#EE5D80" d="M433.7,76.1L358.45,76.1 358.45,139.25 433.7,139.25 433.7,76.1"/><g><path fill="#EE5D80" d="M382,118.875L382.025,118.875 404.175,106.075 404.175,106.025 382.025,93.225 381.975,93.25 381.975,118.85 382,118.875"/><path fill="#EE5D80" stroke-width="5" stroke-linecap="round" stroke-linejoin="miter" stroke-miterlimit="10" d="M404.15,106.05L382,93.25 382,118.85 404.15,106.05"/><path fill="none" stroke="#EE5D80" stroke-width="5" stroke-linecap="round" stroke-linejoin="miter" stroke-miterlimit="10" d="M404.15,106.05L382,93.25 382,118.85 404.15,106.05"/></g><g><path fill="#221F1F" d="M391.6,120.525L391.625,120.525 413.775,107.725 413.775,107.675 391.625,94.875 391.575,94.9 391.575,120.5 391.6,120.525"/><path fill="#221F1F" stroke-width="5" stroke-linecap="round" stroke-linejoin="round" d="M413.75,107.7L391.6,94.9 391.6,120.5 413.75,107.7"/><path fill="none" stroke="#221F1F" stroke-width="5" stroke-linecap="round" stroke-linejoin="round" d="M413.75,107.7L391.6,94.9 391.6,120.5 413.75,107.7"/></g><animate attributeName="display" repeatCount="indefinite" dur="18.75s" keyTimes="0;0.204;0.442;1" values="none;inline;none;none"/></g><g><path fill="#EE5D80" d="M433.45,76.1L358.2,76.1 358.2,139.25 433.45,139.25 433.45,76.1"/><g id="Timeline_1_copy" transform="matrix(1 0 0 1 349.55 70.25)" opacity="0.5"><path fill="#00A44F" d="M92.4,-0.025L9.525,-0.025Q8.864,-0.029 8.225,0.05 7.597,0.133 7,0.3 6.383,0.476 5.8,0.725 5.229,0.965 4.7,1.275 4.165,1.581 3.675,1.95 3.199,2.333 2.775,2.775 2.334,3.199 1.95,3.675 1.581,4.165 1.275,4.7 0.965,5.229 0.725,5.8 0.476,6.383 0.3,7 0.133,7.598 0.05,8.225 -0.029,8.864 -0.025,9.525L-0.025,63.875Q-0.029,64.536 0.05,65.175 0.133,65.815 0.3,66.425 0.476,67.029 0.725,67.6 0.965,68.184 1.275,68.725 1.581,69.247 1.95,69.725 2.334,70.214 2.775,70.65 3.199,71.091 3.675,71.475 4.165,71.844 4.7,72.15 5.229,72.46 5.8,72.7 6.383,72.949 7,73.125 7.597,73.292 8.225,73.375 8.864,73.455 9.525,73.45L35.9,73.45 40.525,76.7Q40.891,76.95 41.3,77.075 41.718,77.201 42.15,77.2 42.57,77.201 42.975,77.075 43.384,76.95 43.75,76.7L48.4,73.45 92.4,73.45 92.425,73.425 92.425,0 92.4,-0.025"/></g><path fill="#EE5D80" d="M442.001,142.6L442.051,142.55 442.051,70.25 359.151,70.25Q358.451,70.2 357.851,70.3 357.201,70.4 356.601,70.55 356.001,70.75 355.401,71 354.851,71.2 354.301,71.55 353.751,71.85 353.301,72.2 352.801,72.6 352.401,73.05 351.951,73.45 351.551,73.95 351.201,74.4 350.901,74.95 350.551,75.5 350.351,76.05 350.101,76.65 349.901,77.25 349.751,77.85 349.651,78.5 349.551,79.1 349.601,79.8L349.601,167.25Q349.551,167.7 349.651,168.55L349.901,169.8 350.351,171Q350.701,171.85 350.901,172.1L351.551,173.1Q351.901,173.6 352.401,174 352.851,174.5 353.301,174.85L354.301,175.5 356.601,176.5 357.851,176.75 442.051,176.8 442.051,166 442.001,165.95 397.951,165.95 393.551,169Q393.151,169.35 392.551,169.5L391.401,169.7 390.301,169.5Q389.701,169.35 389.301,169L384.851,165.95 378.851,165.95Q376.501,165.85 374.751,165.1 372.801,164.25 371.401,162.85 370.001,161.45 369.151,159.5 368.351,157.7 368.351,155.45L368.351,153.1Q368.351,152.35 368.451,151.65 368.501,150.95 368.701,150.3 368.901,149.6 369.151,149 369.401,148.35 369.801,147.8 370.101,147.2 370.551,146.7 370.951,146.15 371.401,145.65 371.901,145.2 372.451,144.8 372.951,144.35 373.551,144 374.101,143.65 374.751,143.4 375.401,143.15 376.051,142.95 376.701,142.75 377.401,142.7 378.101,142.6 378.851,142.6L384.701,142.6Q384.851,142.6 385.001,142.65 385.151,142.65 385.251,142.75L390.401,146.35Q390.601,146.5 390.901,146.6 391.151,146.65 391.451,146.65 391.701,146.65 391.951,146.6 392.201,146.5 392.451,146.35L397.601,142.75Q397.701,142.65 397.851,142.65 397.951,142.6 398.151,142.6L442.001,142.6"/><g><path fill="#EE5D80" d="M381.75,118.875L381.775,118.875 403.925,106.075 403.925,106.025 381.775,93.225 381.725,93.25 381.725,118.85 381.75,118.875"/><path fill="#EE5D80" stroke-width="5" stroke-linecap="round" stroke-linejoin="miter" stroke-miterlimit="10" d="M403.9,106.05L381.75,93.25 381.75,118.85 403.9,106.05"/><path fill="none" stroke="#EE5D80" stroke-width="5" stroke-linecap="round" stroke-linejoin="miter" stroke-miterlimit="10" d="M403.9,106.05L381.75,93.25 381.75,118.85 403.9,106.05"/></g><g><path fill="#221F1F" d="M391.35,120.525L391.375,120.525 413.525,107.725 413.525,107.675 391.375,94.875 391.325,94.9 391.325,120.5 391.35,120.525"/><path fill="#221F1F" stroke-width="5" stroke-linecap="round" stroke-linejoin="round" d="M413.5,107.7L391.35,94.9 391.35,120.5 413.5,107.7"/><path fill="none" stroke="#221F1F" stroke-width="5" stroke-linecap="round" stroke-linejoin="round" d="M413.5,107.7L391.35,94.9 391.35,120.5 413.5,107.7"/></g><animate attributeName="display" repeatCount="indefinite" dur="18.75s" keyTimes="0;0.204;1" values="inline;none;none"/></g><g style="display:none;"><g id="repetir_3" transform="matrix(1 0 0 1 371.05 144.95)"><g id="repetir 3_0.0"><g><g><path fill="#9BCD72" d="M93.35,6.725L93.35,0 25.95,0 20.35,3.75Q20.15,3.85 19.95,3.95 19.7,4 19.45,4 19.2,4 19,3.95 18.75,3.85 18.6,3.75L12.95,0 9.55,0Q8.85,-0.05 8.25,0.05 7.6,0.15 7,0.3 6.35,0.5 5.8,0.75 5.25,0.95 4.7,1.3 4.15,1.6 3.7,1.95 3.2,2.35 2.8,2.8 2.35,3.2 1.95,3.7 1.6,4.15 1.3,4.7 0.95,5.25 0.75,5.8 0.5,6.35 0.3,7 0.15,7.6 0.05,8.25 -0.05,8.85 0,9.55L0.55,152.95Q0.5,153.4 0.6,154.25L0.85,155.5 1.3,156.7Q1.65,157.55 1.85,157.8L2.5,158.8 4.25,160.55 6.35,161.8 7.55,162.2 9.9,162.525 9.9,162.55 15.75,162.55 20.35,165.8Q20.7,166.05 21.15,166.2 21.5,166.3 21.85,166.3L22.2,166.3Q22.5,166.3 22.8,166.2 23.05,166.1 23.35,166L23.4,165.95 28.25,162.55 93.85,162.55 93.9,162.5 93.9,151.7 93.85,151.65 49.85,151.65 45.45,154.75 44.45,155.25Q43.95,155.4 43.3,155.4L42.2,155.25 41.2,154.75 36.8,151.65 30.75,151.65Q28.45,151.65 26.5,150.85 24.4,150 22.85,148.6 21.3,147.25 20.25,145.25 19.25,143.35 19.25,141.2L18.85,81.3Q18.95,80.6 19.15,79.95 19.35,79.3 19.7,78.65 20,78.05 20.4,77.45 20.8,76.85 21.3,76.35 21.75,75.8 22.3,75.35 22.8,74.85 23.4,74.45 24,74 24.65,73.7 25.3,73.35 25.95,73.1 26.6,72.8 27.35,72.65 28.05,72.45 28.75,72.35 29.45,72.25 30.2,72.25L36.05,72.25Q36.2,72.25 36.35,72.3 36.5,72.3 36.6,72.4L41.75,76Q41.95,76.15 42.25,76.25 42.5,76.3 42.75,76.3 43.05,76.3 43.3,76.25 43.55,76.15 43.8,76L48.95,72.4Q49.05,72.3 49.2,72.3 49.3,72.25 49.5,72.25L93.3,72.25 93.35,72.2 93.35,17.175 88.4,12.75Q88.25,12.6 88.15,12.4 88.05,12.2 88.1,11.95 88.05,11.7 88.15,11.5 88.25,11.25 88.4,11.1L93.35,6.725"/><path fill="none" stroke="#FFF" stroke-width="2" stroke-linecap="round" stroke-linejoin="round" d="M93.35,6.725L93.35,0 25.95,0 20.35,3.75Q20.15,3.85 19.95,3.95 19.7,4 19.45,4 19.2,4 19,3.95 18.75,3.85 18.6,3.75L12.95,0 9.55,0Q8.85,-0.05 8.25,0.05 7.6,0.15 7,0.3 6.35,0.5 5.8,0.75 5.25,0.95 4.7,1.3 4.15,1.6 3.7,1.95 3.2,2.35 2.8,2.8 2.35,3.2 1.95,3.7 1.6,4.15 1.3,4.7 0.95,5.25 0.75,5.8 0.5,6.35 0.3,7 0.15,7.6 0.05,8.25 -0.05,8.85 0,9.55L0.55,152.95Q0.5,153.4 0.6,154.25L0.85,155.5 1.3,156.7Q1.65,157.55 1.85,157.8L2.5,158.8 4.25,160.55 6.35,161.8 7.55,162.2 9.9,162.525 9.9,162.55 15.75,162.55 20.35,165.8Q20.7,166.05 21.15,166.2 21.5,166.3 21.85,166.3L22.2,166.3Q22.5,166.3 22.8,166.2 23.05,166.1 23.35,166L23.4,165.95 28.25,162.55 93.85,162.55 93.9,162.5 93.9,151.7 93.85,151.65M93.3,72.25L93.35,72.2 93.35,17.175 88.4,12.75Q88.25,12.6 88.15,12.4 88.05,12.2 88.1,11.95 88.05,11.7 88.15,11.5 88.25,11.25 88.4,11.1L93.35,6.725"/></g><path fill="none" stroke="#221F1F" stroke-width="7" stroke-linecap="round" stroke-linejoin="round" d="M31.45,52.225L31.45,37.75M31.45,52.225Q31.477,53.472 32.3,54.3 33.128,55.136 34.375,55.175L64.875,55.175"/><path fill="none" stroke="#221F1F" stroke-width="7" stroke-linecap="round" stroke-linejoin="round" d="M67.775,27.725L67.775,42.225M67.775,27.725Q67.761,27.122 67.525,26.6 67.3,26.061 66.9,25.65 66.502,25.25 65.975,25.025 65.44,24.801 64.825,24.8L34.35,24.8"/><path fill="#221F1F" d="M57.05,43.825L56.9,43.825Q56.513,43.822 56.15,44 55.861,44.144 55.65,44.375 55.44,44.608 55.325,44.9 55.219,45.196 55.225,45.525L55.225,65.2Q55.219,65.529 55.325,65.825 55.44,66.117 55.65,66.35 55.86,66.594 56.15,66.75 56.332,66.835 56.525,66.875 56.711,66.922 56.9,66.925 57.18,66.931 57.45,66.85 57.704,66.755 57.925,66.575L70.775,56.75Q70.994,56.589 71.15,56.375 71.298,56.156 71.375,55.9 71.451,55.647 71.45,55.375 71.449,54.961 71.275,54.6 71.096,54.245 70.775,54L57.925,44.15Q57.524,43.862 57.05,43.825"/><path fill="#221F1F" d="M42.425,13.825L42.25,13.825Q42.022,13.818 41.8,13.875 41.505,13.957 41.25,14.15L28.4,24Q28.181,24.161 28.025,24.375 27.877,24.595 27.8,24.85 27.723,25.103 27.725,25.375 27.726,25.789 27.9,26.15 28.077,26.505 28.4,26.75L41.25,36.575Q41.471,36.755 41.725,36.85 41.981,36.931 42.25,36.925 42.451,36.922 42.65,36.875 42.842,36.835 43.025,36.75 43.314,36.594 43.525,36.35 43.723,36.117 43.825,35.825 43.944,35.529 43.95,35.2L43.95,15.525Q43.944,15.196 43.825,14.9 43.723,14.608 43.525,14.375 43.315,14.144 43.025,14 42.736,13.854 42.425,13.825"/></g></g></g><animate attributeName="display" repeatCount="indefinite" dur="18.75s" keyTimes="0;0.442;1" values="none;inline;inline"/></g><g style="display:none;"><use xlink:href="#repetir" transform="matrix(1 0 0 1 371.05 144.5)"/><animate attributeName="display" repeatCount="indefinite" dur="18.75s" keyTimes="0;0.204;0.442;1" values="none;inline;none;none"/></g><g style="display:none;"><g id="repetir_selec" transform="matrix(1 0 0 1 30.5 68.55)"><animateTransform attributeName="transform" additive="replace" type="translate" dur="18.75s" keyTimes="0;1" values="0,0;0,0" fill="freeze"/><animateTransform attributeName="transform" additive="sum" type="translate" repeatCount="indefinite" dur="18.75s" keyTimes="0;0.131;0.133;0.136;0.138;0.14;0.142;0.144;0.147;0.149;0.151;0.153;0.156;0.158;0.16;0.162;0.164;0.167;0.169;0.171;0.173;0.176;0.178;0.18;0.182;0.184;0.187;0.189;0.19;0.191;1" values="30.5,68.55;30.5,68.55;46.65,72.35;62.8,76.15;78.95,79.95;95.05,83.7;111.2,87.5;127.35,91.3;143.5,95.1;159.65,98.9;175.75,102.65;191.9,106.45;208.05,110.25;224.2,114.05;240.35,117.85;256.5,121.65;272.6,125.4;288.75,129.2;304.9,133;321.05,136.8;326.45,138.05;331.8,139.35;337.2,140.6;342.55,141.85;347.95,143.15;353.3,144.4;358.7,145.65;364.05,146.95;369.45,148.2;0;0" calcMode="discrete"/><animateTransform attributeName="transform" additive="sum" type="translate" repeatCount="indefinite" dur="18.75s" keyTimes="0;0.191;1" values="0;369.45,148.2;369.45,148.2" calcMode="discrete"/><g id="repetir selec_0.0"><g><path fill="#9BCD72" stroke="#EE5D80" stroke-width="3" stroke-linecap="round" stroke-linejoin="round" d="M8.25,-0.35Q7.6,-0.25 7,-0.1 6.35,0.1 5.8,0.35 5.25,0.55 4.7,0.9 4.15,1.2 3.7,1.55 3.2,1.95 2.8,2.4 2.35,2.8 1.95,3.3 1.6,3.75 1.3,4.3 0.95,4.85 0.75,5.4 0.5,5.95 0.3,6.6 0.15,7.2 0.05,7.85 -0.032,8.34 -0.025,8.9 -0.024,9.212 0,9.55L0.1,97.8Q0.05,98.25 0.15,99.1L0.4,100.35 0.85,101.55Q1.2,102.4 1.4,102.65L2.05,103.65 3.8,105.4 5.9,106.65 7.1,107.05 9.65,107.4 14.85,107.4 19.45,110.65Q19.8,110.9 20.25,111.05 20.6,111.15 20.95,111.15L21.3,111.15Q21.6,111.15 21.9,111.05 22.15,110.95 22.45,110.85L22.5,110.8 27.35,107.4 93.4,107.4 93.45,107.35 93.45,106.95 93.8,106.95 93.85,106.9 93.85,96.1 93.8,96.05 49.8,96.05 45.4,99.15 44.4,99.65Q43.9,99.8 43.25,99.8L42.15,99.65 41.15,99.15 36.75,96.05 30.7,96.05Q28.4,96.05 26.45,95.25 24.35,94.4 22.8,93 21.25,91.65 20.2,89.65 19.2,87.75 19.2,85.6L18.825,83.475 18.85,81.3Q18.95,80.6 19.15,79.95 19.35,79.3 19.7,78.65 20,78.05 20.4,77.45 20.8,76.85 21.3,76.35 21.75,75.8 22.3,75.35 22.8,74.85 23.4,74.45 24,74 24.65,73.7 25.3,73.35 25.95,73.1 26.6,72.8 27.35,72.65 28.05,72.45 28.75,72.35 29.45,72.25 30.2,72.25L36.05,72.25Q36.2,72.25 36.35,72.3 36.5,72.3 36.6,72.4L41.75,76Q41.95,76.15 42.25,76.25 42.5,76.3 42.75,76.3 43.05,76.3 43.3,76.25 43.55,76.15 43.8,76L48.95,72.4Q49.05,72.3 49.2,72.3 49.3,72.25 49.5,72.25L93.3,72.25 93.35,72.2 93.35,16.8 88.4,12.35Q88.25,12.2 88.15,12 88.092,11.884 88.075,11.75 88.092,11.616 88.15,11.5 88.25,11.25 88.4,11.1L93.35,6.725 93.35,-0.4 25.95,-0.4 20.35,3.35Q20.15,3.45 19.95,3.55 19.7,3.6 19.45,3.6 19.2,3.6 19,3.55 18.75,3.45 18.6,3.35L12.95,-0.4 9.55,-0.4Q8.85,-0.45 8.25,-0.35"/><path fill="none" stroke="#221F1F" stroke-width="7" stroke-linecap="round" stroke-linejoin="round" d="M31.45,52.225L31.45,37.75M31.45,52.225Q31.477,53.472 32.3,54.3 33.128,55.136 34.375,55.175L64.875,55.175"/><path fill="none" stroke="#221F1F" stroke-width="7" stroke-linecap="round" stroke-linejoin="round" d="M67.775,27.725L67.775,42.225M67.775,27.725Q67.761,27.122 67.525,26.6 67.3,26.061 66.9,25.65 66.502,25.25 65.975,25.025 65.44,24.801 64.825,24.8L34.35,24.8"/><path fill="#221F1F" d="M57.05,43.825L56.9,43.825Q56.513,43.822 56.15,44 55.861,44.144 55.65,44.375 55.44,44.608 55.325,44.9 55.219,45.196 55.225,45.525L55.225,65.2Q55.219,65.529 55.325,65.825 55.44,66.117 55.65,66.35 55.86,66.594 56.15,66.75 56.332,66.835 56.525,66.875 56.711,66.922 56.9,66.925 57.18,66.931 57.45,66.85 57.704,66.755 57.925,66.575L70.775,56.75Q70.994,56.589 71.15,56.375 71.298,56.156 71.375,55.9 71.451,55.647 71.45,55.375 71.449,54.961 71.275,54.6 71.096,54.245 70.775,54L57.925,44.15Q57.524,43.862 57.05,43.825"/><path fill="#221F1F" d="M42.425,13.825L42.25,13.825Q42.022,13.818 41.8,13.875 41.505,13.957 41.25,14.15L28.4,24Q28.181,24.161 28.025,24.375 27.877,24.595 27.8,24.85 27.723,25.103 27.725,25.375 27.726,25.789 27.9,26.15 28.077,26.505 28.4,26.75L41.25,36.575Q41.471,36.755 41.725,36.85 41.981,36.931 42.25,36.925 42.451,36.922 42.65,36.875 42.842,36.835 43.025,36.75 43.314,36.594 43.525,36.35 43.723,36.117 43.825,35.825 43.944,35.529 43.95,35.2L43.95,15.525Q43.944,15.196 43.825,14.9 43.723,14.608 43.525,14.375 43.315,14.144 43.025,14 42.736,13.854 42.425,13.825"/></g></g></g><animate attributeName="display" repeatCount="indefinite" dur="18.75s" keyTimes="0;0.089;0.204;1" values="none;inline;none;none"/></g><g><use xlink:href="#repetir" transform="matrix(1 0 0 1 30.5 68.55)"/><animate attributeName="display" repeatCount="indefinite" dur="18.75s" keyTimes="0;0.089;1" values="inline;none;none"/></g><g style="display:none;"><g><path fill="#26A7DF" d="M543.95,147.7Q543.5,147.25 543,146.85 542.5,146.5 542,146.2 541.45,145.85 540.9,145.65 540.3,145.4 539.7,145.2 539.1,145.05 538.5,144.95 537.85,144.85 537.2,144.9L464.4,144.9 464.4,151.65 459.5,156Q459.35,156.15 459.25,156.4 459.15,156.6 459.2,156.85 459.15,157.1 459.25,157.3 459.35,157.5 459.5,157.65L464.4,162.025 464.4,217.3 537.2,217.3Q537.85,217.25 538.5,217.2 539.1,217.1 539.7,216.95 540.3,216.75 540.9,216.55 541.45,216.3 542,216 542.5,215.65 543,215.3 543.5,214.9 543.95,214.5 544.35,214.05 544.75,213.55 545.1,213.05 545.45,212.55 545.75,212 546,211.45 546.2,210.85 546.4,210.25 546.55,209.65 546.65,209 546.7,208.35 546.75,207.7L546.75,154.45Q546.7,153.75 546.65,153.15 546.55,152.5 546.4,151.9 546.2,151.25 546,150.7 545.75,150.15 545.45,149.6 545.1,149.05 544.75,148.6 544.35,148.1 543.95,147.7"/><path fill="none" stroke="#FFF" stroke-width="3" stroke-linecap="round" stroke-linejoin="round" d="M464.4,144.9L464.4,151.65 459.5,156Q459.35,156.15 459.25,156.4 459.15,156.6 459.2,156.85 459.15,157.1 459.25,157.3 459.35,157.5 459.5,157.65L464.4,162.025 464.4,217.3"/></g><animate attributeName="display" repeatCount="indefinite" dur="18.75s" keyTimes="0;0.682;1" values="none;inline;inline"/></g><g style="display:none;"><g id="numero_selec" transform="matrix(1 0 0 1 30.5 271.55)"><animateTransform attributeName="transform" additive="replace" type="translate" repeatCount="indefinite" dur="18.75s" keyTimes="0;0.613;0.616;0.618;0.62;0.622;0.624;0.627;0.629;0.631;0.633;0.636;0.638;0.64;0.642;0.644;0.647;0.649;0.651;0.653;0.656;0.658;0.66;0.662;0.664;0.667;0.669;1" values="30.5,271.55;30.5,271.55;50.4,265.25;70.25,259;90.15,252.7;110.05,246.45;129.9,240.15;149.8,233.85;169.65,227.6;189.55,221.3;209.4,215.05;229.3,208.75;249.2,202.45;269.05,196.2;288.95,189.9;308.85,183.6;328.7,177.35;348.6,171.05;368.45,164.8;388.35,158.5;398.45,156.55;408.6,154.6;418.7,152.65;428.85,150.75;438.95,148.8;449.1,146.85;459.2,144.9;459.2,144.9" calcMode="discrete"/><g id="numero selec_0.0"><path fill="#26A7DF" stroke="#EE5D80" stroke-width="3" stroke-linecap="round" stroke-linejoin="round" d="M86.8,5.8Q86.55,5.25 86.25,4.7 85.9,4.15 85.55,3.7 85.15,3.2 84.75,2.8 84.3,2.35 83.8,1.95 83.3,1.6 82.8,1.3 82.25,0.95 81.7,0.75 81.1,0.5 80.5,0.3 79.9,0.15 79.3,0.05 78.65,-0.05 78,0L5.2,0 5.2,6.75 0.3,11.1Q0.15,11.25 0.05,11.5 -0.05,11.7 0,11.95 -0.05,12.2 0.05,12.4 0.15,12.6 0.3,12.75L5.2,17.125 5.2,72.4 78,72.4Q78.65,72.35 79.3,72.3 79.9,72.2 80.5,72.05 81.1,71.85 81.7,71.65 82.25,71.4 82.8,71.1 83.3,70.75 83.8,70.4 84.3,70 84.75,69.6 85.15,69.15 85.55,68.65 85.9,68.15 86.25,67.65 86.55,67.1 86.8,66.55 87,65.95 87.2,65.35 87.35,64.75 87.45,64.1 87.5,63.45 87.55,62.8L87.55,9.55Q87.5,8.85 87.45,8.25 87.35,7.6 87.2,7 87,6.35 86.8,5.8"/></g></g><animate attributeName="display" repeatCount="indefinite" dur="18.75s" keyTimes="0;0.571;0.682;1" values="none;inline;none;none"/></g><g><g id="numero" transform="matrix(1 0 0 1 30.5 268.65)"><g><g id="numero_0.0.0"><path fill="#26A7DF" d="M77.975,-0.025L72.4,-0.025 72.1,-0.025 58.7,-0.025 5.2,-0.025 5.175,0 5.175,72.325 5.2,72.375 77.975,72.375Q78.636,72.367 79.275,72.275 79.903,72.192 80.5,72.025 81.104,71.861 81.675,71.625 82.259,71.386 82.8,71.075 83.323,70.757 83.8,70.375 84.289,70.003 84.725,69.575 85.153,69.139 85.525,68.65 85.907,68.16 86.225,67.625 86.535,67.097 86.775,66.525 87.011,65.954 87.175,65.35 87.341,64.74 87.425,64.1 87.516,63.462 87.525,62.8L87.525,9.525Q87.516,8.864 87.425,8.225 87.341,7.584 87.175,6.975 87.011,6.371 86.775,5.8 86.535,5.229 86.225,4.7 85.907,4.165 85.525,3.675 85.153,3.199 84.725,2.775 84.289,2.334 83.8,1.95 83.323,1.581 82.8,1.275 82.259,0.965 81.675,0.725 81.104,0.477 80.5,0.3 79.903,0.133 79.275,0.05 78.636,-0.029 77.975,-0.025"/></g><g id="numero_0.0.1"><path fill="#26A7DF" d="M7.45,5.075L7.375,5.075Q7.249,5.068 7.125,5.1 6.964,5.154 6.825,5.275L0.3,11.1Q0.137,11.254 0.05,11.475 -0.031,11.684 -0.025,11.925 -0.032,12.178 0.05,12.4 0.137,12.607 0.3,12.75L6.825,18.575Q6.954,18.688 7.1,18.75 7.234,18.801 7.375,18.8 7.569,18.793 7.75,18.675 7.908,18.588 8.025,18.45 8.124,18.305 8.175,18.125 8.241,17.947 8.25,17.75L8.25,6.1Q8.241,5.903 8.175,5.725 8.124,5.544 8.025,5.4 7.908,5.261 7.75,5.175 7.606,5.089 7.45,5.075"/></g></g></g><animate attributeName="display" repeatCount="indefinite" dur="18.75s" keyTimes="0;0.571;1" values="inline;none;none"/></g><g style="display:none;"><g id="bloque2" transform="matrix(1 0 0 1 391.9 220.1)"><g id="bloque2_0.0"><path fill="#FFC85F" stroke="#FFF" stroke-width="2" stroke-linecap="round" stroke-linejoin="round" d="M82.45,73.45L82.45,0 28.8,0 23.7,3.55Q23.35,3.8 22.95,3.95 22.55,4.05 22.15,4.05 21.7,4.05 21.3,3.95 20.9,3.8 20.55,3.55L15.4,0 9.55,0Q8.85,-0.05 8.25,0.05 7.6,0.15 7,0.3 6.4,0.5 5.8,0.75 5.25,0.95 4.7,1.3 4.15,1.6 3.7,1.95 3.35,2.25 3.05,2.55 2.9,2.7 2.8,2.8 2.748,2.835 2.7,2.875 2.62,2.963 2.55,3.05L2.325,3.275Q2.138,3.481 1.95,3.7 1.6,4.15 1.3,4.7 0.95,5.25 0.75,5.8 0.5,6.4 0.3,7 0.15,7.6 0.05,8.25 -0.05,8.85 0,9.55L0,63.9Q-0.05,64.55 0.05,65.2 0.15,65.8 0.3,66.45 0.5,67.05 0.75,67.6 0.978,68.198 1.3,68.75 1.362,68.853 1.425,68.95 1.672,69.353 1.95,69.75 2.25,70.1 2.55,70.4L2.8,70.65Q3.2,71.1 3.7,71.45 3.754,71.504 3.8,71.55 4.215,71.885 4.7,72.15 5.25,72.45 5.8,72.7 6.4,72.95 7,73.15 7.6,73.3 8.25,73.4 8.85,73.45 9.55,73.45L15.9,73.45 20.5,76.7Q20.85,76.95 21.3,77.1 21.65,77.2 22,77.2L22.35,77.2Q22.644,77.188 22.95,77.1 23.213,77.013 23.475,76.875L23.55,76.85 28.4,73.45 82.45,73.45"/></g></g><animate attributeName="display" repeatCount="indefinite" dur="18.75s" keyTimes="0;0.442;1" values="none;inline;inline"/></g><g style="display:none;"><g id="bloque1" transform="matrix(1 0 0 1 30.5 184.55)"><animateTransform attributeName="transform" additive="replace" type="translate" dur="18.75s" keyTimes="0;1" values="0,0;0,0" fill="freeze"/><animateTransform attributeName="transform" additive="sum" type="translate" repeatCount="indefinite" dur="18.75s" keyTimes="0;0.369;0.371;0.373;0.376;0.378;0.38;0.382;0.384;0.387;0.389;0.391;0.393;0.396;0.398;0.4;0.402;0.404;0.407;0.409;0.411;0.413;0.416;0.418;0.42;0.422;0.424;0.427;0.428;0.429;1" values="30.5,184.55;30.5,184.55;46.65,186.05;62.8,187.6;78.95,189.1;95.05,190.6;111.2,192.1;127.35,193.65;143.5,195.15;159.65,196.65;175.75,198.15;191.9,199.7;208.05,201.2;224.2,202.7;240.35,204.25;256.5,205.75;272.6,207.25;288.75,208.75;304.9,210.3;321.05,211.8;328.9,212.8;336.8,213.8;344.65,214.75;352.55,215.75;360.4,216.75;368.3,217.75;376.15,218.7;384.05,219.7;391.9,220.7;0;0" calcMode="discrete"/><animateTransform attributeName="transform" additive="sum" type="translate" repeatCount="indefinite" dur="18.75s" keyTimes="0;0.429;1" values="0;391.9,220.7;391.9,220.7" calcMode="discrete"/><g id="bloque1_0.0"><g><path fill="#FFC85F" d="M82.45,0L82.4,0 82.4,73.45 82.45,73.45 82.45,0"/><path fill="#FFC85F" d="M82.4,73.45L82.4,0 28.85,0 23.75,3.6Q23,4.1 22.15,4.1 21.7,4.1 21.3,3.95 20.9,3.85 20.55,3.6L19.1,2.55 15.4,0 9.55,0Q7.95,0 6.55,0.5 5.1,0.95 3.9,1.85 3.45,2.2 3.05,2.55 2.9,2.7 2.8,2.8 2.748,2.835 2.7,2.875 2.62,2.963 2.55,3.05L2.325,3.275Q2.063,3.58 1.85,3.9 0.95,5.1 0.5,6.55 0,7.95 0,9.55L0,63.9Q0,65.45 0.5,66.9 0.6,67.25 0.75,67.6 0.978,68.198 1.3,68.75 1.362,68.853 1.425,68.95 1.624,69.26 1.85,69.55 2.2,70 2.55,70.4L2.8,70.65Q3.2,71.1 3.7,71.45 3.754,71.504 3.8,71.55 3.854,71.577 3.9,71.6 5.1,72.45 6.55,72.95 7.95,73.4 9.55,73.45L15.9,73.45 19.35,75.9 20.55,76.7Q20.9,76.95 21.3,77.05 21.65,77.15 22,77.2L22.35,77.2Q22.644,77.181 22.95,77.05 23.213,77.006 23.475,76.875L23.55,76.85 27.2,74.3 28.35,73.45 28.4,73.45 82.4,73.45"/><path fill="#FFC85F" d="M28.85,0L28.8,0 23.7,3.55Q23.35,3.8 22.95,3.95 22.55,4.05 22.15,4.05 21.7,4.05 21.3,3.95 21.7,4.1 22.15,4.1 23,4.1 23.75,3.6L28.85,0"/><path fill="#FFC85F" d="M20.55,3.6Q20.9,3.85 21.3,3.95 20.9,3.8 20.55,3.55L19.1,2.55 20.55,3.6"/><path fill="#FFC85F" d="M6.55,0.5Q7.95,0 9.55,0 8.85,-0.05 8.25,0.05 7.6,0.15 7,0.3 6.4,0.5 5.8,0.75 5.25,0.95 4.7,1.3 4.15,1.6 3.7,1.95 3.35,2.25 3.05,2.55 3.45,2.2 3.9,1.85 5.1,0.95 6.55,0.5"/><path fill="#FFC85F" d="M1.85,3.9Q2.063,3.58 2.325,3.275 2.138,3.481 1.95,3.7 1.6,4.15 1.3,4.7 0.95,5.25 0.75,5.8 0.5,6.4 0.3,7 0.15,7.6 0.05,8.25 -0.05,8.85 0,9.55 0,7.95 0.5,6.55 0.95,5.1 1.85,3.9"/><path fill="#FFC85F" d="M28.4,73.45L28.35,73.45 27.2,74.3 28.4,73.45"/><path fill="#FFC85F" d="M0.75,67.6Q0.6,67.25 0.5,66.9 0,65.45 0,63.9 -0.05,64.55 0.05,65.2 0.15,65.8 0.3,66.45 0.5,67.05 0.75,67.6"/><path fill="#FFC85F" d="M1.425,68.95Q1.672,69.353 1.95,69.75 2.25,70.1 2.55,70.4 2.2,70 1.85,69.55 1.624,69.26 1.425,68.95"/><path fill="#FFC85F" d="M3.9,71.6Q3.854,71.577 3.8,71.55 4.215,71.885 4.7,72.15 5.25,72.45 5.8,72.7 6.4,72.95 7,73.15 7.6,73.3 8.25,73.4 8.85,73.45 9.55,73.45 7.95,73.4 6.55,72.95 5.1,72.45 3.9,71.6"/><path fill="#FFC85F" d="M22.95,77.1Q23.213,77.013 23.475,76.875 23.213,77.006 22.95,77.05 22.644,77.181 22.35,77.2 22.644,77.188 22.95,77.1"/><path fill="#FFC85F" d="M22,77.2Q21.65,77.15 21.3,77.05 20.9,76.95 20.55,76.7L19.35,75.9 20.5,76.7Q20.85,76.95 21.3,77.1 21.65,77.2 22,77.2"/><path fill="none" stroke="#EE5D80" stroke-width="3" stroke-linecap="round" stroke-linejoin="round" d="M28.85,0L82.4,0M15.4,0L19.1,2.55M9.55,0L15.4,0M2.7,2.875Q2.854,2.713 3.05,2.55M2.55,3.05Q2.62,2.963 2.7,2.875M2.325,3.275L2.55,3.05M0,63.9L0,9.55M1.3,68.75Q0.978,68.198 0.75,67.6M1.425,68.95Q1.362,68.853 1.3,68.75M2.8,70.65L2.55,70.4M3.7,71.45Q3.2,71.1 2.8,70.65M3.8,71.55Q3.754,71.504 3.7,71.45M15.9,73.45L9.55,73.45M19.35,75.9L15.9,73.45M22.35,77.2L22,77.2M23.55,76.85L23.475,76.875M27.2,74.3L23.55,76.85M82.4,73.45L28.4,73.45"/><path fill="none" stroke="#EE5D80" stroke-width="3" stroke-linecap="round" stroke-linejoin="round" d="M82.4,0L82.4,73.45"/><path fill="none" stroke="#EE5D80" stroke-width="3" stroke-linecap="round" stroke-linejoin="round" d="M28.85,0L23.75,3.6Q23,4.1 22.15,4.1 21.7,4.1 21.3,3.95 20.9,3.85 20.55,3.6L19.1,2.55M9.55,0Q7.95,0 6.55,0.5 5.1,0.95 3.9,1.85 3.45,2.2 3.05,2.55 2.9,2.7 2.8,2.8 2.748,2.835 2.7,2.875M2.325,3.275Q2.063,3.58 1.85,3.9 0.95,5.1 0.5,6.55 0,7.95 0,9.55M0,63.9Q0,65.45 0.5,66.9 0.6,67.25 0.75,67.6M1.425,68.95Q1.624,69.26 1.85,69.55 2.2,70 2.55,70.4M3.8,71.55Q3.854,71.577 3.9,71.6 5.1,72.45 6.55,72.95 7.95,73.4 9.55,73.45M19.35,75.9L20.55,76.7Q20.9,76.95 21.3,77.05 21.65,77.15 22,77.2M22.35,77.2Q22.644,77.181 22.95,77.05 23.213,77.006 23.475,76.875M27.2,74.3L28.35,73.45 28.4,73.45"/></g></g></g><animate attributeName="display" repeatCount="indefinite" dur="18.75s" keyTimes="0;0.327;0.442;1" values="none;inline;none;none"/></g><g><path fill="#FFC85F" d="M35.2,185.85Q34.65,186.15 34.2,186.5 33.836,186.792 33.525,187.1 33.408,187.228 33.3,187.35 33.161,187.473 33.025,187.6 32.727,187.904 32.45,188.25 32.1,188.7 31.8,189.25 31.45,189.8 31.25,190.35 31,190.95 30.8,191.55 30.65,192.15 30.55,192.8 30.45,193.4 30.5,194.1L30.5,248.45Q30.45,249.1 30.55,249.75 30.65,250.35 30.8,251 31,251.6 31.25,252.15 31.45,252.75 31.8,253.3 32.1,253.8 32.45,254.3 32.743,254.63 33.05,254.95L33.3,255.2Q33.7,255.65 34.2,256 34.65,256.4 35.2,256.7 35.75,257 36.3,257.25 36.9,257.5 37.5,257.7 38.1,257.85 38.75,257.95 39.35,258 40.05,258L46.4,258 51,261.25Q51.35,261.5 51.8,261.65 52.125,261.731 52.475,261.75L52.75,261.75Q53.1,261.738 53.45,261.65 53.751,261.537 54.05,261.375L58.9,258 112.95,258 112.95,184.55 59.3,184.55 54.2,188.1Q53.85,188.35 53.45,188.5 53.05,188.6 52.65,188.6 52.2,188.6 51.8,188.5 51.4,188.35 51.05,188.1L45.9,184.55 40.05,184.55Q39.35,184.5 38.75,184.6 38.1,184.7 37.5,184.85 36.9,185.05 36.3,185.3 35.75,185.5 35.2,185.85"/><animate attributeName="display" repeatCount="indefinite" dur="18.75s" keyTimes="0;0.327;1" values="inline;none;none"/></g><g style="display:none;"><g id="mano_tap" transform="matrix(1 0 0 1 608 293.5)"><animateTransform attributeName="transform" additive="replace" type="translate" repeatCount="indefinite" dur="18.75s" keyTimes="0;0.844;0.847;0.849;0.851;0.853;0.856;0.858;0.86;0.862;0.864;0.867;0.869;0.871;0.873;0.876;0.878;0.88;0.882;0.884;1" values="670.05,358.1;670.05,358.1;674.25,359.55;678.45,361;682.6,362.4;686.8,363.85;691,365.3;695.2,366.75;699.35,368.15;703.55,369.6;707.75,371.05;709.15,371.55;710.55,372;711.95,372.5;713.35,372.95;714.7,373.45;716.1,373.9;717.5,374.4;718.9,374.85;720.3,375.35;720.3,375.35" calcMode="discrete"/><animateTransform attributeName="transform" additive="sum" type="scale" repeatCount="indefinite" dur="18.75s" keyTimes="0;0.811;0.812;0.842;0.843;1" values="1,1;1,1;0.941,0.941;0.941,0.941;1,1;1,1" calcMode="discrete"/><animateTransform attributeName="transform" additive="sum" type="translate" repeatCount="indefinite" dur="18.75s" keyTimes="0;1" values="-62.05,-64.6;-62.05,-64.6" calcMode="discrete"/><g id="mano tap_0.0"><path fill="#F59120" d="M99.977,38.621Q97.027,38.015 93.899,38.008L64.036,38.008 64.036,14.152Q64.035,13.421 63.964,12.708 63.889,11.988 63.746,11.294 63.606,10.602 63.403,9.933 63.195,9.268 62.925,8.634 62.653,8.001 62.322,7.398 61.996,6.796 61.616,6.234 60.851,5.101 59.891,4.135 58.925,3.17 57.792,2.4 57.23,2.02 56.628,1.694 56.02,1.368 55.381,1.101 54.748,0.831 54.082,0.623 53.413,0.414 52.721,0.27 52.033,0.131 51.319,0.062 50.605,-0.009 49.874,-0.01 47.91,-0.007 46.103,0.488 44.302,0.993 42.726,1.922 41.146,2.85 39.858,4.135 38.572,5.423 37.645,7.003 36.715,8.58 36.211,10.38 35.71,12.187 35.702,14.152L35.702,73.928 24.168,62.384Q23.127,61.346 21.945,60.566 21.357,60.182 20.739,59.86 20.121,59.535 19.482,59.278 18.843,59.018 18.183,58.82 17.523,58.626 16.853,58.498 16.188,58.368 15.513,58.301 14.832,58.237 14.152,58.239 13.471,58.237 12.791,58.301 12.115,58.368 11.45,58.498 10.78,58.626 10.12,58.82 9.461,59.018 8.822,59.278 8.183,59.535 7.564,59.86 6.947,60.182 6.359,60.566 5.177,61.346 4.135,62.384 2.752,63.777 1.829,65.408 0.908,67.036 0.447,68.806 -0.011,70.579 -0.01,72.401 -0.011,74.222 0.447,75.996 0.908,77.766 1.829,79.394 2.752,81.024 4.135,82.417L47.277,125.558Q47.62,125.904 47.983,126.223 48.351,126.541 48.731,126.826 49.113,127.115 49.511,127.377 49.906,127.636 50.311,127.865 50.715,128.097 51.132,128.302 51.554,128.504 51.984,128.676 52.409,128.846 52.846,128.987 53.284,129.132 53.729,129.247L124.062,129.247 124.073,129.226 124.073,68.182Q124.066,65.054 123.46,62.104 122.852,59.153 121.704,56.441 120.551,53.725 118.919,51.308 117.284,48.895 115.23,46.84 113.181,44.791 110.773,43.162 108.355,41.53 105.64,40.377 102.927,39.229 99.977,38.621"/></g></g><animate attributeName="display" repeatCount="indefinite" dur="18.75s" keyTimes="0;0.791;1" values="none;inline;inline"/></g><g style="display:none;"><use xlink:href="#mano_abierta" transform="matrix(1.116 0 0 1.116 439.5 159.95)"><animateTransform attributeName="transform" additive="replace" type="translate" dur="18.75s" keyTimes="0;1" values="0,0;0,0" fill="freeze"/><animateTransform attributeName="transform" additive="sum" type="translate" repeatCount="indefinite" dur="18.75s" keyTimes="0;0.682;0.684;0.687;0.689;0.691;0.693;0.727;0.729;0.731;0.733;0.736;0.738;0.74;0.742;0.744;0.747;0.749;0.751;0.753;0.756;0.758;0.76;0.762;0.764;0.767;0.769;0.771;0.773;0.775;0.776;1" values="508.748,232.043;508.748,232.043;508.808,232.019;508.757,231.949;508.817,231.981;508.767,231.961;508.773,231.996;508.773,231.996;512.47,234.943;516.325,237.89;520.026,240.838;523.826,243.833;527.629,246.779;531.429,249.725;535.13,252.778;538.878,255.672;542.735,258.57;549.797,264.127;556.811,269.685;563.926,275.19;570.991,280.698;578.006,286.307;585.173,291.712;592.237,297.269;599.301,302.879;606.365,308.385;613.379,313.891;620.545,319.4;627.611,324.956;634.624,330.514;0;0" calcMode="discrete"/><animateTransform attributeName="transform" additive="sum" type="translate" repeatCount="indefinite" dur="18.75s" keyTimes="0;0.776;0.778;0.78;0.782;0.784;0.787;1" values="0;634.624,330.514;641.74,336.02;648.805,341.478;655.869,347.085;662.986,352.543;670.05,358.1;670.05,358.1" calcMode="discrete"/><animateTransform attributeName="transform" additive="sum" type="scale" repeatCount="indefinite" dur="18.75s" keyTimes="0;0.682;0.684;0.687;0.689;0.691;0.693;0.727;0.729;0.731;0.733;0.736;0.738;0.74;0.742;0.744;0.747;0.749;0.751;0.753;0.756;0.758;0.76;0.762;0.764;0.767;0.769;0.771;0.773;0.775;0.776;1" values="1.116,1.116;1.116,1.116;1.106,1.106;1.097,1.097;1.087,1.087;1.078,1.078;1.068,1.068;1.068,1.068;1.066,1.066;1.065,1.065;1.063,1.063;1.062,1.062;1.06,1.06;1.058,1.058;1.057,1.057;1.055,1.055;1.054,1.054;1.051,1.051;1.048,1.048;1.045,1.045;1.042,1.042;1.039,1.039;1.036,1.036;1.033,1.033;1.03,1.03;1.027,1.027;1.024,1.024;1.021,1.021;1.018,1.018;1.015,1.015;1;1" calcMode="discrete"/><animateTransform attributeName="transform" additive="sum" type="scale" repeatCount="indefinite" dur="18.75s" keyTimes="0;0.776;0.778;0.78;0.782;0.784;0.787;1" values="1;1.015,1.015;1.012,1.012;1.009,1.009;1.006,1.006;1.003,1.003;1,1;1,1" calcMode="discrete"/><animateTransform attributeName="transform" additive="sum" type="translate" repeatCount="indefinite" dur="18.75s" keyTimes="0;0.682;0.684;0.687;0.689;0.691;0.693;0.727;0.729;0.731;0.736;0.738;0.74;0.742;0.744;0.747;0.749;0.751;0.753;0.756;0.758;0.76;0.762;0.764;0.767;0.769;0.771;0.773;0.775;0.776;1" values="-62.05,-64.6;-62.05,-64.6;-62.1,-64.55;-62.05,-64.55;-62.1,-64.55;-62.05,-64.55;-62.05,-64.6;-62.05,-64.6;-62,-64.6;-62.05,-64.6;-62.05,-64.6;-62.05,-64.55;-62.05,-64.55;-62.05,-64.65;-62,-64.6;-62.1,-64.6;-62.05,-64.6;-62.05,-64.65;-62.05,-64.6;-62.05,-64.6;-62.05,-64.65;-62.1,-64.6;-62.1,-64.6;-62.05,-64.65;-62.05,-64.65;-62,-64.6;-62.05,-64.65;-62.1,-64.65;-62,-64.65;0;0" calcMode="discrete"/><animateTransform attributeName="transform" additive="sum" type="translate" repeatCount="indefinite" dur="18.75s" keyTimes="0;0.776;0.778;0.78;0.782;0.784;0.787;1" values="0;-62,-64.65;-62.1,-64.65;-62.1,-64.6;-62.05,-64.65;-62.1,-64.6;-62.05,-64.6;-62.05,-64.6" calcMode="discrete"/></use><animate attributeName="display" repeatCount="indefinite" dur="18.75s" keyTimes="0;0.682;0.791;1" values="none;inline;none;none"/></g><g style="display:none;"><use xlink:href="#mano_cerrada" transform="matrix(1 0 0 1 20.95 281.3)"><animateTransform attributeName="transform" additive="replace" type="translate" repeatCount="indefinite" dur="18.75s" keyTimes="0;0.613;0.616;0.618;0.62;0.622;0.624;0.627;0.629;0.631;0.633;0.636;0.638;0.64;0.642;0.644;0.647;0.649;0.651;0.653;0.656;0.658;0.66;0.662;0.664;0.667;0.669;1" values="20.95,281.3;20.95,281.3;40.85,274.75;60.7,268.2;80.6,261.65;100.5,255.1;120.35,248.55;140.25,242;160.1,235.45;180,228.9;199.85,222.35;219.75,215.8;239.65,209.25;259.5,202.7;279.4,196.15;299.3,189.6;319.15,183.05;339.05,176.5;358.9,169.95;378.8,163.4;388.9,161.45;399.05,159.55;409.15,157.6;419.3,155.7;429.4,153.75;439.55,151.85;449.65,149.9;449.65,149.9" calcMode="discrete"/></use><animate attributeName="display" repeatCount="indefinite" dur="18.75s" keyTimes="0;0.571;0.682;1" values="none;inline;none;none"/></g><g style="display:none;"><use xlink:href="#mano_abierta" transform="matrix(1.068 0 0 1.068 360.2 223.8)"><animateTransform attributeName="transform" additive="replace" type="translate" dur="18.75s" keyTimes="0;1" values="0,0;0,0" fill="freeze"/><animateTransform attributeName="transform" additive="sum" type="translate" repeatCount="indefinite" dur="18.75s" keyTimes="0;0.442;0.444;0.447;0.449;0.451;0.453;0.5;0.502;0.504;0.507;0.509;0.511;0.513;0.516;0.518;0.52;0.522;0.524;0.527;0.529;0.531;0.533;0.536;0.538;0.54;0.542;0.544;0.547;0.548;0.549;1" values="426.473,292.796;426.473,292.796;426.428,292.767;426.485,292.787;426.437,292.808;426.394,292.729;426.45,292.8;426.45,292.8;413.75,295.2;401,297.65;388.3,300.05;375.55,302.5;362.85,304.9;350.1,307.35;337.4,309.75;324.65,312.2;311.95,314.6;296.35,317.55;280.75,320.55;265.1,323.5;249.5,326.45;233.9,329.45;218.3,332.4;202.7,335.4;187.1,338.35;171.45,341.3;155.85,344.3;140.25,347.25;132.05,348.8;123.9,350.35;0;0" calcMode="discrete"/><animateTransform attributeName="transform" additive="sum" type="translate" repeatCount="indefinite" dur="18.75s" keyTimes="0;0.549;0.551;0.553;0.556;0.558;0.56;1" values="0;123.9,350.35;115.7,351.9;107.55,353.5;99.35,355.05;91.2,356.6;83,358.15;83,358.15" calcMode="discrete"/><animateTransform attributeName="transform" additive="sum" type="scale" repeatCount="indefinite" dur="18.75s" keyTimes="0;0.442;0.444;0.447;0.449;0.451;0.453;0.548;0.549;1" values="1.068,1.068;1.068,1.068;1.054,1.054;1.041,1.041;1.027,1.027;1.014,1.014;1,1;1,1;1;1" calcMode="discrete"/><animateTransform attributeName="transform" additive="sum" type="translate" repeatCount="indefinite" dur="18.75s" keyTimes="0;0.444;0.447;0.449;0.451;0.453;0.548;0.549;1" values="-62.05,-64.6;-62.05,-64.6;-62.1,-64.6;-62,-64.6;-62,-64.55;-62.05,-64.6;-62.05,-64.6;0;0" calcMode="discrete"/><animateTransform attributeName="transform" additive="sum" type="translate" repeatCount="indefinite" dur="18.75s" keyTimes="0;0.549;1" values="0;-62.05,-64.6;-62.05,-64.6" calcMode="discrete"/></use><animate attributeName="display" repeatCount="indefinite" dur="18.75s" keyTimes="0;0.442;0.571;1" values="none;inline;none;none"/></g><g style="display:none;"><use xlink:href="#mano_cerrada" transform="matrix(1 0 0 1 20.95 188.8)"><animateTransform attributeName="transform" additive="replace" type="translate" dur="18.75s" keyTimes="0;1" values="0,0;0,0" fill="freeze"/><animateTransform attributeName="transform" additive="sum" type="translate" repeatCount="indefinite" dur="18.75s" keyTimes="0;0.369;0.371;0.373;0.376;0.378;0.38;0.382;0.384;0.387;0.389;0.391;0.393;0.396;0.398;0.4;0.402;0.404;0.407;0.409;0.411;0.413;0.416;0.418;0.42;0.422;0.424;0.427;0.428;0.429;1" values="20.95,188.8;20.95,188.8;37.1,190.35;53.25,191.9;69.4,193.45;85.5,195;101.65,196.55;117.8,198.1;133.95,199.65;150.1,201.2;166.2,202.75;182.35,204.3;198.5,205.85;214.65,207.4;230.8,208.95;246.95,210.5;263.05,212.05;279.2,213.6;295.35,215.15;311.5,216.7;319.35,217.7;327.25,218.7;335.1,219.7;343,220.7;350.85,221.7;358.75,222.7;366.6,223.7;374.5,224.7;382.35,225.7;0;0" calcMode="discrete"/><animateTransform attributeName="transform" additive="sum" type="translate" repeatCount="indefinite" dur="18.75s" keyTimes="0;0.429;1" values="0;382.35,225.7;382.35,225.7" calcMode="discrete"/></use><animate attributeName="display" repeatCount="indefinite" dur="18.75s" keyTimes="0;0.327;0.442;1" values="none;inline;none;none"/></g><g style="display:none;"><use xlink:href="#mano_abierta" transform="matrix(1.068 0 0 1.068 363.2 171.3)"><animateTransform attributeName="transform" additive="replace" type="translate" dur="18.75s" keyTimes="0;1" values="0,0;0,0" fill="freeze"/><animateTransform attributeName="transform" additive="sum" type="translate" repeatCount="indefinite" dur="18.75s" keyTimes="0;0.204;0.207;0.209;0.211;0.213;0.216;0.258;0.26;0.262;0.264;0.267;0.269;0.271;0.273;0.276;0.278;0.28;0.282;0.284;0.287;0.289;0.291;0.293;0.296;0.298;0.3;0.302;0.304;0.306;0.307;1" values="429.473,240.296;429.473,240.296;429.481,240.32;429.431,240.287;429.438,240.308;429.444,240.279;429.45,240.3;429.45,240.3;412.95,241.5;396.45,242.7;379.95,243.95;363.45,245.15;346.95,246.35;330.45,247.55;316,248.6;301.6,249.65;287.15,250.7;272.7,251.75;258.3,252.8;243.85,253.9;229.4,254.95;215,256;200.55,257.05;186.1,258.1;171.7,259.15;157.25,260.2;147.95,260.9;138.7,261.55;129.4,262.25;120.15,262.95;0;0" calcMode="discrete"/><animateTransform attributeName="transform" additive="sum" type="translate" repeatCount="indefinite" dur="18.75s" keyTimes="0;0.307;0.309;0.311;0.313;0.316;1" values="0;120.15,262.95;110.85,263.6;101.55,264.3;92.3,264.95;83,265.65;83,265.65" calcMode="discrete"/><animateTransform attributeName="transform" additive="sum" type="scale" repeatCount="indefinite" dur="18.75s" keyTimes="0;0.204;0.207;0.209;0.211;0.213;0.216;0.306;0.307;1" values="1.068,1.068;1.068,1.068;1.054,1.054;1.041,1.041;1.027,1.027;1.014,1.014;1,1;1,1;1;1" calcMode="discrete"/><animateTransform attributeName="transform" additive="sum" type="translate" repeatCount="indefinite" dur="18.75s" keyTimes="0;0.204;0.207;0.209;0.211;0.213;0.216;0.306;0.307;1" values="-62.05,-64.6;-62.05,-64.6;-62.1,-64.65;-62,-64.6;-62.05,-64.6;-62,-64.6;-62.05,-64.6;-62.05,-64.6;0;0" calcMode="discrete"/><animateTransform attributeName="transform" additive="sum" type="translate" repeatCount="indefinite" dur="18.75s" keyTimes="0;0.307;1" values="0;-62.05,-64.6;-62.05,-64.6" calcMode="discrete"/></use><animate attributeName="display" repeatCount="indefinite" dur="18.75s" keyTimes="0;0.204;0.327;1" values="none;inline;none;none"/></g><g style="display:none;"><use xlink:href="#mano_cerrada" transform="matrix(1 0 0 1 20.95 72.8)"><animateTransform attributeName="transform" additive="replace" type="translate" dur="18.75s" keyTimes="0;1" values="0,0;0,0" fill="freeze"/><animateTransform attributeName="transform" additive="sum" type="translate" repeatCount="indefinite" dur="18.75s" keyTimes="0;0.131;0.133;0.136;0.138;0.14;0.142;0.144;0.147;0.149;0.151;0.153;0.156;0.158;0.16;0.162;0.164;0.167;0.169;0.171;0.173;0.176;0.178;0.18;0.182;0.184;0.187;0.189;0.19;0.191;1" values="20.95,72.8;20.95,72.8;37.1,76.65;53.25,80.45;69.4,84.3;85.5,88.1;101.65,91.95;117.8,95.75;133.95,99.6;150.1,103.4;166.2,107.25;182.35,111.1;198.5,114.9;214.65,118.75;230.8,122.55;246.95,126.4;263.05,130.2;279.2,134.05;295.35,137.85;311.5,141.7;316.9,143;322.25,144.25;327.65,145.55;333,146.8;338.4,148.1;343.75,149.35;349.15,150.65;354.5,151.9;359.9,153.2;0;0" calcMode="discrete"/><animateTransform attributeName="transform" additive="sum" type="translate" repeatCount="indefinite" dur="18.75s" keyTimes="0;0.191;1" values="0;359.9,153.2;359.9,153.2" calcMode="discrete"/></use><animate attributeName="display" repeatCount="indefinite" dur="18.75s" keyTimes="0;0.089;0.204;1" values="none;inline;none;none"/></g><g><use xlink:href="#mano_abierta" transform="matrix(1 0 0 1 336.05 294.4)"><animateTransform attributeName="transform" additive="replace" type="translate" repeatCount="indefinite" dur="18.75s" keyTimes="0;0.029;0.031;0.033;0.036;0.038;0.04;0.042;0.044;0.047;0.049;0.051;0.053;0.056;0.058;0.06;0.062;0.064;0.067;0.069;0.071;0.073;0.076;0.078;1" values="336.05,294.4;336.05,294.4;330.65,290.8;325.3,287.25;319.9,283.65;314.5,280.1;309.1,276.5;303.75,272.95;298.35,269.35;279.5,256.8;260.65,244.3;241.8,231.75;222.95,219.25;204.1,206.7;185.2,194.2;166.35,181.65;147.5,169.15;128.65,156.6;109.8,144.1;90.95,131.55;73.45,119.95;55.95,108.3;38.45,96.7;20.95,85.05;20.95,85.05" calcMode="discrete"/></use><animate attributeName="display" repeatCount="indefinite" dur="18.75s" keyTimes="0;0.089;1" values="inline;none;none"/></g></g></svg>